<svg width="364" height="1088" viewBox="0 0 364 1088" fill="none" xmlns="http://www.w3.org/2000/svg">
<g clip-path="url(#clip0_52_921)" filter="url(#filter0_d_52_921)">
<path d="M4 0H340C351.046 0 360 8.95431 360 20V1060C360 1071.05 351.046 1080 340 1080H4V0Z" fill="#6964ED"/>
<path d="M161.37 135.57V160H156.47V144.11L149.925 160H146.215L139.635 144.11V160H134.735V135.57H140.3L148.07 153.735L155.84 135.57H161.37ZM184.239 149.885C184.239 150.585 184.193 151.215 184.099 151.775H169.924C170.041 153.175 170.531 154.272 171.394 155.065C172.258 155.858 173.319 156.255 174.579 156.255C176.399 156.255 177.694 155.473 178.464 153.91H183.749C183.189 155.777 182.116 157.317 180.529 158.53C178.943 159.72 176.994 160.315 174.684 160.315C172.818 160.315 171.138 159.907 169.644 159.09C168.174 158.25 167.019 157.072 166.179 155.555C165.363 154.038 164.954 152.288 164.954 150.305C164.954 148.298 165.363 146.537 166.179 145.02C166.996 143.503 168.139 142.337 169.609 141.52C171.079 140.703 172.771 140.295 174.684 140.295C176.528 140.295 178.173 140.692 179.619 141.485C181.089 142.278 182.221 143.41 183.014 144.88C183.831 146.327 184.239 147.995 184.239 149.885ZM179.164 148.485C179.141 147.225 178.686 146.222 177.799 145.475C176.913 144.705 175.828 144.32 174.544 144.32C173.331 144.32 172.304 144.693 171.464 145.44C170.648 146.163 170.146 147.178 169.959 148.485H179.164ZM198.561 140.33C200.871 140.33 202.738 141.065 204.161 142.535C205.584 143.982 206.296 146.012 206.296 148.625V160H201.396V149.29C201.396 147.75 201.011 146.572 200.241 145.755C199.471 144.915 198.421 144.495 197.091 144.495C195.738 144.495 194.664 144.915 193.871 145.755C193.101 146.572 192.716 147.75 192.716 149.29V160H187.816V140.61H192.716V143.025C193.369 142.185 194.198 141.532 195.201 141.065C196.228 140.575 197.348 140.33 198.561 140.33ZM229.261 140.61V160H224.326V157.55C223.696 158.39 222.867 159.055 221.841 159.545C220.837 160.012 219.741 160.245 218.551 160.245C217.034 160.245 215.692 159.93 214.526 159.3C213.359 158.647 212.437 157.702 211.761 156.465C211.107 155.205 210.781 153.712 210.781 151.985V140.61H215.681V151.285C215.681 152.825 216.066 154.015 216.836 154.855C217.606 155.672 218.656 156.08 219.986 156.08C221.339 156.08 222.401 155.672 223.171 154.855C223.941 154.015 224.326 152.825 224.326 151.285V140.61H229.261Z" fill="white"/>
<path d="M360 338.5L4 338.5" stroke="white" stroke-width="0.3"/>
<path d="M360 409.5L4 409.5" stroke="white" stroke-width="0.3"/>
<path d="M360 480.5L4 480.5" stroke="white" stroke-width="0.3"/>
<path d="M360 551.5L4 551.5" stroke="white" stroke-width="0.3"/>
<path d="M171.057 377.5L166.907 370.375H164.157V377.5H161.882V360.075H167.507C168.824 360.075 169.932 360.3 170.832 360.75C171.749 361.2 172.432 361.808 172.882 362.575C173.332 363.342 173.557 364.217 173.557 365.2C173.557 366.4 173.207 367.458 172.507 368.375C171.824 369.292 170.79 369.9 169.407 370.2L173.782 377.5H171.057ZM164.157 368.55H167.507C168.74 368.55 169.665 368.25 170.282 367.65C170.899 367.033 171.207 366.217 171.207 365.2C171.207 364.167 170.899 363.367 170.282 362.8C169.682 362.233 168.757 361.95 167.507 361.95H164.157V368.55ZM189.592 370.125C189.592 370.558 189.567 371.017 189.517 371.5H178.567C178.65 372.85 179.109 373.908 179.942 374.675C180.792 375.425 181.817 375.8 183.017 375.8C184 375.8 184.817 375.575 185.467 375.125C186.134 374.658 186.6 374.042 186.867 373.275H189.317C188.95 374.592 188.217 375.667 187.117 376.5C186.017 377.317 184.65 377.725 183.017 377.725C181.717 377.725 180.55 377.433 179.517 376.85C178.5 376.267 177.7 375.442 177.117 374.375C176.534 373.292 176.242 372.042 176.242 370.625C176.242 369.208 176.525 367.967 177.092 366.9C177.659 365.833 178.45 365.017 179.467 364.45C180.5 363.867 181.684 363.575 183.017 363.575C184.317 363.575 185.467 363.858 186.467 364.425C187.467 364.992 188.234 365.775 188.767 366.775C189.317 367.758 189.592 368.875 189.592 370.125ZM187.242 369.65C187.242 368.783 187.05 368.042 186.667 367.425C186.284 366.792 185.759 366.317 185.092 366C184.442 365.667 183.717 365.5 182.917 365.5C181.767 365.5 180.784 365.867 179.967 366.6C179.167 367.333 178.709 368.35 178.592 369.65H187.242ZM197.445 377.725C196.395 377.725 195.453 377.55 194.62 377.2C193.787 376.833 193.128 376.333 192.645 375.7C192.162 375.05 191.895 374.308 191.845 373.475H194.195C194.262 374.158 194.578 374.717 195.145 375.15C195.728 375.583 196.487 375.8 197.42 375.8C198.287 375.8 198.97 375.608 199.47 375.225C199.97 374.842 200.22 374.358 200.22 373.775C200.22 373.175 199.953 372.733 199.42 372.45C198.887 372.15 198.062 371.858 196.945 371.575C195.928 371.308 195.095 371.042 194.445 370.775C193.812 370.492 193.262 370.083 192.795 369.55C192.345 369 192.12 368.283 192.12 367.4C192.12 366.7 192.328 366.058 192.745 365.475C193.162 364.892 193.753 364.433 194.52 364.1C195.287 363.75 196.162 363.575 197.145 363.575C198.662 363.575 199.887 363.958 200.82 364.725C201.753 365.492 202.253 366.542 202.32 367.875H200.045C199.995 367.158 199.703 366.583 199.17 366.15C198.653 365.717 197.953 365.5 197.07 365.5C196.253 365.5 195.603 365.675 195.12 366.025C194.637 366.375 194.395 366.833 194.395 367.4C194.395 367.85 194.537 368.225 194.82 368.525C195.12 368.808 195.487 369.042 195.92 369.225C196.37 369.392 196.987 369.583 197.77 369.8C198.753 370.067 199.553 370.333 200.17 370.6C200.787 370.85 201.312 371.233 201.745 371.75C202.195 372.267 202.428 372.942 202.445 373.775C202.445 374.525 202.237 375.2 201.82 375.8C201.403 376.4 200.812 376.875 200.045 377.225C199.295 377.558 198.428 377.725 197.445 377.725ZM217.806 363.8V377.5H215.531V375.475C215.098 376.175 214.49 376.725 213.706 377.125C212.94 377.508 212.09 377.7 211.156 377.7C210.09 377.7 209.131 377.483 208.281 377.05C207.431 376.6 206.756 375.933 206.256 375.05C205.773 374.167 205.531 373.092 205.531 371.825V363.8H207.781V371.525C207.781 372.875 208.123 373.917 208.806 374.65C209.49 375.367 210.423 375.725 211.606 375.725C212.823 375.725 213.781 375.35 214.481 374.6C215.181 373.85 215.531 372.758 215.531 371.325V363.8H217.806ZM223.923 359V377.5H221.648V359H223.923ZM230.575 365.675V373.75C230.575 374.417 230.717 374.892 231 375.175C231.283 375.442 231.775 375.575 232.475 375.575H234.15V377.5H232.1C230.833 377.5 229.883 377.208 229.25 376.625C228.617 376.042 228.3 375.083 228.3 373.75V365.675H226.525V363.8H228.3V360.35H230.575V363.8H234.15V365.675H230.575ZM241.756 377.725C240.706 377.725 239.765 377.55 238.931 377.2C238.098 376.833 237.44 376.333 236.956 375.7C236.473 375.05 236.206 374.308 236.156 373.475H238.506C238.573 374.158 238.89 374.717 239.456 375.15C240.04 375.583 240.798 375.8 241.731 375.8C242.598 375.8 243.281 375.608 243.781 375.225C244.281 374.842 244.531 374.358 244.531 373.775C244.531 373.175 244.265 372.733 243.731 372.45C243.198 372.15 242.373 371.858 241.256 371.575C240.24 371.308 239.406 371.042 238.756 370.775C238.123 370.492 237.573 370.083 237.106 369.55C236.656 369 236.431 368.283 236.431 367.4C236.431 366.7 236.64 366.058 237.056 365.475C237.473 364.892 238.065 364.433 238.831 364.1C239.598 363.75 240.473 363.575 241.456 363.575C242.973 363.575 244.198 363.958 245.131 364.725C246.065 365.492 246.565 366.542 246.631 367.875H244.356C244.306 367.158 244.015 366.583 243.481 366.15C242.965 365.717 242.265 365.5 241.381 365.5C240.565 365.5 239.915 365.675 239.431 366.025C238.948 366.375 238.706 366.833 238.706 367.4C238.706 367.85 238.848 368.225 239.131 368.525C239.431 368.808 239.798 369.042 240.231 369.225C240.681 369.392 241.298 369.583 242.081 369.8C243.065 370.067 243.865 370.333 244.481 370.6C245.098 370.85 245.623 371.233 246.056 371.75C246.506 372.267 246.74 372.942 246.756 373.775C246.756 374.525 246.548 375.2 246.131 375.8C245.715 376.4 245.123 376.875 244.356 377.225C243.606 377.558 242.74 377.725 241.756 377.725Z" fill="white"/>
<path d="M92.0258 356.5C90.4909 356.5 88.9559 357.132 87.7822 358.276L79.4153 366.462C76.1949 369.682 76.1949 374.889 79.4153 378.14C82.6356 381.36 87.8424 381.36 91.0928 378.14L94.8549 374.377L92.7782 372.301L89.287 375.702L89.0161 376.093C86.9394 378.17 83.5686 378.17 81.4919 376.093C79.4454 374.046 79.5056 370.736 81.4919 368.659L89.8588 360.382C91.0326 359.209 92.9889 359.209 94.1928 360.382C95.3665 361.556 95.3063 363.422 94.1928 364.626L86.6686 372.06C86.3676 372.361 85.856 372.361 85.5249 372.06C85.2239 371.759 85.2239 371.247 85.5249 370.916L85.7055 370.826L88.4443 367.997L86.3676 365.92L83.4482 368.84C82.0036 370.284 82.0036 372.662 83.4482 374.107C84.8929 375.551 87.2705 375.581 88.7152 374.107L96.2393 366.763C98.5869 364.415 98.5869 360.623 96.2393 358.306C95.0656 357.132 93.5607 356.53 91.9957 356.53L92.0258 356.5Z" fill="white"/>
<path d="M152.8 507.2V524.5H150.525V511.6L144.775 524.5H143.175L137.4 511.575V524.5H135.125V507.2H137.575L143.975 521.5L150.375 507.2H152.8ZM168.458 510.8L160.208 530.95H157.858L160.558 524.35L155.033 510.8H157.558L161.858 521.9L166.108 510.8H168.458ZM189.06 512.175C189.06 513.625 188.56 514.833 187.56 515.8C186.577 516.75 185.068 517.225 183.035 517.225H179.685V524.5H177.41V507.075H183.035C185.002 507.075 186.493 507.55 187.51 508.5C188.543 509.45 189.06 510.675 189.06 512.175ZM183.035 515.35C184.302 515.35 185.235 515.075 185.835 514.525C186.435 513.975 186.735 513.192 186.735 512.175C186.735 510.025 185.502 508.95 183.035 508.95H179.685V515.35H183.035ZM194.162 513.025C194.562 512.242 195.129 511.633 195.862 511.2C196.612 510.767 197.521 510.55 198.587 510.55V512.9H197.987C195.437 512.9 194.162 514.283 194.162 517.05V524.5H191.887V510.8H194.162V513.025ZM207.189 524.725C205.905 524.725 204.739 524.433 203.689 523.85C202.655 523.267 201.839 522.442 201.239 521.375C200.655 520.292 200.364 519.042 200.364 517.625C200.364 516.225 200.664 514.992 201.264 513.925C201.88 512.842 202.714 512.017 203.764 511.45C204.814 510.867 205.989 510.575 207.289 510.575C208.589 510.575 209.764 510.867 210.814 511.45C211.864 512.017 212.689 512.833 213.289 513.9C213.905 514.967 214.214 516.208 214.214 517.625C214.214 519.042 213.897 520.292 213.264 521.375C212.647 522.442 211.805 523.267 210.739 523.85C209.672 524.433 208.489 524.725 207.189 524.725ZM207.189 522.725C208.005 522.725 208.772 522.533 209.489 522.15C210.205 521.767 210.78 521.192 211.214 520.425C211.664 519.658 211.889 518.725 211.889 517.625C211.889 516.525 211.672 515.592 211.239 514.825C210.805 514.058 210.239 513.492 209.539 513.125C208.839 512.742 208.08 512.55 207.264 512.55C206.43 512.55 205.664 512.742 204.964 513.125C204.28 513.492 203.73 514.058 203.314 514.825C202.897 515.592 202.689 516.525 202.689 517.625C202.689 518.742 202.889 519.683 203.289 520.45C203.705 521.217 204.255 521.792 204.939 522.175C205.622 522.542 206.372 522.725 207.189 522.725ZM222.855 510.575C224.038 510.575 225.071 510.833 225.955 511.35C226.855 511.867 227.521 512.517 227.955 513.3V510.8H230.255V524.8C230.255 526.05 229.988 527.158 229.455 528.125C228.921 529.108 228.155 529.875 227.155 530.425C226.171 530.975 225.021 531.25 223.705 531.25C221.905 531.25 220.405 530.825 219.205 529.975C218.005 529.125 217.296 527.967 217.08 526.5H219.33C219.58 527.333 220.096 528 220.88 528.5C221.663 529.017 222.605 529.275 223.705 529.275C224.955 529.275 225.971 528.883 226.755 528.1C227.555 527.317 227.955 526.217 227.955 524.8V521.925C227.505 522.725 226.838 523.392 225.955 523.925C225.071 524.458 224.038 524.725 222.855 524.725C221.638 524.725 220.53 524.425 219.53 523.825C218.546 523.225 217.771 522.383 217.205 521.3C216.638 520.217 216.355 518.983 216.355 517.6C216.355 516.2 216.638 514.975 217.205 513.925C217.771 512.858 218.546 512.033 219.53 511.45C220.53 510.867 221.638 510.575 222.855 510.575ZM227.955 517.625C227.955 516.592 227.746 515.692 227.33 514.925C226.913 514.158 226.346 513.575 225.63 513.175C224.93 512.758 224.155 512.55 223.305 512.55C222.455 512.55 221.68 512.75 220.98 513.15C220.28 513.55 219.721 514.133 219.305 514.9C218.888 515.667 218.68 516.567 218.68 517.6C218.68 518.65 218.888 519.567 219.305 520.35C219.721 521.117 220.28 521.708 220.98 522.125C221.68 522.525 222.455 522.725 223.305 522.725C224.155 522.725 224.93 522.525 225.63 522.125C226.346 521.708 226.913 521.117 227.33 520.35C227.746 519.567 227.955 518.658 227.955 517.625ZM246.599 517.125C246.599 517.558 246.574 518.017 246.524 518.5H235.574C235.658 519.85 236.116 520.908 236.949 521.675C237.799 522.425 238.824 522.8 240.024 522.8C241.008 522.8 241.824 522.575 242.474 522.125C243.141 521.658 243.608 521.042 243.874 520.275H246.324C245.958 521.592 245.224 522.667 244.124 523.5C243.024 524.317 241.658 524.725 240.024 524.725C238.724 524.725 237.558 524.433 236.524 523.85C235.508 523.267 234.708 522.442 234.124 521.375C233.541 520.292 233.249 519.042 233.249 517.625C233.249 516.208 233.533 514.967 234.099 513.9C234.666 512.833 235.458 512.017 236.474 511.45C237.508 510.867 238.691 510.575 240.024 510.575C241.324 510.575 242.474 510.858 243.474 511.425C244.474 511.992 245.241 512.775 245.774 513.775C246.324 514.758 246.599 515.875 246.599 517.125ZM244.249 516.65C244.249 515.783 244.058 515.042 243.674 514.425C243.291 513.792 242.766 513.317 242.099 513C241.449 512.667 240.724 512.5 239.924 512.5C238.774 512.5 237.791 512.867 236.974 513.6C236.174 514.333 235.716 515.35 235.599 516.65H244.249ZM254.452 524.725C253.402 524.725 252.461 524.55 251.627 524.2C250.794 523.833 250.136 523.333 249.652 522.7C249.169 522.05 248.902 521.308 248.852 520.475H251.202C251.269 521.158 251.586 521.717 252.152 522.15C252.736 522.583 253.494 522.8 254.427 522.8C255.294 522.8 255.977 522.608 256.477 522.225C256.977 521.842 257.227 521.358 257.227 520.775C257.227 520.175 256.961 519.733 256.427 519.45C255.894 519.15 255.069 518.858 253.952 518.575C252.936 518.308 252.102 518.042 251.452 517.775C250.819 517.492 250.269 517.083 249.802 516.55C249.352 516 249.127 515.283 249.127 514.4C249.127 513.7 249.336 513.058 249.752 512.475C250.169 511.892 250.761 511.433 251.527 511.1C252.294 510.75 253.169 510.575 254.152 510.575C255.669 510.575 256.894 510.958 257.827 511.725C258.761 512.492 259.261 513.542 259.327 514.875H257.052C257.002 514.158 256.711 513.583 256.177 513.15C255.661 512.717 254.961 512.5 254.077 512.5C253.261 512.5 252.611 512.675 252.127 513.025C251.644 513.375 251.402 513.833 251.402 514.4C251.402 514.85 251.544 515.225 251.827 515.525C252.127 515.808 252.494 516.042 252.927 516.225C253.377 516.392 253.994 516.583 254.777 516.8C255.761 517.067 256.561 517.333 257.177 517.6C257.794 517.85 258.319 518.233 258.752 518.75C259.202 519.267 259.436 519.942 259.452 520.775C259.452 521.525 259.244 522.2 258.827 522.8C258.411 523.4 257.819 523.875 257.052 524.225C256.302 524.558 255.436 524.725 254.452 524.725ZM267.514 524.725C266.464 524.725 265.522 524.55 264.689 524.2C263.855 523.833 263.197 523.333 262.714 522.7C262.23 522.05 261.964 521.308 261.914 520.475H264.264C264.33 521.158 264.647 521.717 265.214 522.15C265.797 522.583 266.555 522.8 267.489 522.8C268.355 522.8 269.039 522.608 269.539 522.225C270.039 521.842 270.289 521.358 270.289 520.775C270.289 520.175 270.022 519.733 269.489 519.45C268.955 519.15 268.13 518.858 267.014 518.575C265.997 518.308 265.164 518.042 264.514 517.775C263.88 517.492 263.33 517.083 262.864 516.55C262.414 516 262.189 515.283 262.189 514.4C262.189 513.7 262.397 513.058 262.814 512.475C263.23 511.892 263.822 511.433 264.589 511.1C265.355 510.75 266.23 510.575 267.214 510.575C268.73 510.575 269.955 510.958 270.889 511.725C271.822 512.492 272.322 513.542 272.389 514.875H270.114C270.064 514.158 269.772 513.583 269.239 513.15C268.722 512.717 268.022 512.5 267.139 512.5C266.322 512.5 265.672 512.675 265.189 513.025C264.705 513.375 264.464 513.833 264.464 514.4C264.464 514.85 264.605 515.225 264.889 515.525C265.189 515.808 265.555 516.042 265.989 516.225C266.439 516.392 267.055 516.583 267.839 516.8C268.822 517.067 269.622 517.333 270.239 517.6C270.855 517.85 271.38 518.233 271.814 518.75C272.264 519.267 272.497 519.942 272.514 520.775C272.514 521.525 272.305 522.2 271.889 522.8C271.472 523.4 270.88 523.875 270.114 524.225C269.364 524.558 268.497 524.725 267.514 524.725Z" fill="white"/>
<path d="M90.0258 505.5C88.4909 505.5 86.9559 506.132 85.7822 507.276L77.4153 515.462C74.1949 518.682 74.1949 523.889 77.4153 527.14C80.6356 530.36 85.8424 530.36 89.0928 527.14L92.8549 523.377L90.7782 521.301L87.287 524.702L87.0161 525.093C84.9394 527.17 81.5686 527.17 79.4919 525.093C77.4454 523.046 77.5056 519.736 79.4919 517.659L87.8588 509.382C89.0326 508.209 90.9889 508.209 92.1928 509.382C93.3665 510.556 93.3063 512.422 92.1928 513.626L84.6686 521.06C84.3676 521.361 83.856 521.361 83.5249 521.06C83.2239 520.759 83.2239 520.247 83.5249 519.916L83.7055 519.826L86.4443 516.997L84.3676 514.92L81.4482 517.84C80.0036 519.284 80.0036 521.662 81.4482 523.107C82.8929 524.551 85.2705 524.581 86.7152 523.107L94.2393 515.763C96.5869 513.415 96.5869 509.623 94.2393 507.306C93.0656 506.132 91.5607 505.53 89.9957 505.53L90.0258 505.5Z" fill="white"/>
<path d="M360 254L4 254" stroke="white"/>
<path d="M133.718 301.125H126.118L124.718 305H122.318L128.618 287.675H131.243L137.518 305H135.118L133.718 301.125ZM133.068 299.275L129.918 290.475L126.768 299.275H133.068ZM145.114 305.225C144.064 305.225 143.122 305.05 142.289 304.7C141.456 304.333 140.797 303.833 140.314 303.2C139.831 302.55 139.564 301.808 139.514 300.975H141.864C141.931 301.658 142.247 302.217 142.814 302.65C143.397 303.083 144.156 303.3 145.089 303.3C145.956 303.3 146.639 303.108 147.139 302.725C147.639 302.342 147.889 301.858 147.889 301.275C147.889 300.675 147.622 300.233 147.089 299.95C146.556 299.65 145.731 299.358 144.614 299.075C143.597 298.808 142.764 298.542 142.114 298.275C141.481 297.992 140.931 297.583 140.464 297.05C140.014 296.5 139.789 295.783 139.789 294.9C139.789 294.2 139.997 293.558 140.414 292.975C140.831 292.392 141.422 291.933 142.189 291.6C142.956 291.25 143.831 291.075 144.814 291.075C146.331 291.075 147.556 291.458 148.489 292.225C149.422 292.992 149.922 294.042 149.989 295.375H147.714C147.664 294.658 147.372 294.083 146.839 293.65C146.322 293.217 145.622 293 144.739 293C143.922 293 143.272 293.175 142.789 293.525C142.306 293.875 142.064 294.333 142.064 294.9C142.064 295.35 142.206 295.725 142.489 296.025C142.789 296.308 143.156 296.542 143.589 296.725C144.039 296.892 144.656 297.083 145.439 297.3C146.422 297.567 147.222 297.833 147.839 298.1C148.456 298.35 148.981 298.733 149.414 299.25C149.864 299.767 150.097 300.442 150.114 301.275C150.114 302.025 149.906 302.7 149.489 303.3C149.072 303.9 148.481 304.375 147.714 304.725C146.964 305.058 146.097 305.225 145.114 305.225ZM158.175 305.225C157.125 305.225 156.184 305.05 155.35 304.7C154.517 304.333 153.859 303.833 153.375 303.2C152.892 302.55 152.625 301.808 152.575 300.975H154.925C154.992 301.658 155.309 302.217 155.875 302.65C156.459 303.083 157.217 303.3 158.15 303.3C159.017 303.3 159.7 303.108 160.2 302.725C160.7 302.342 160.95 301.858 160.95 301.275C160.95 300.675 160.684 300.233 160.15 299.95C159.617 299.65 158.792 299.358 157.675 299.075C156.659 298.808 155.825 298.542 155.175 298.275C154.542 297.992 153.992 297.583 153.525 297.05C153.075 296.5 152.85 295.783 152.85 294.9C152.85 294.2 153.059 293.558 153.475 292.975C153.892 292.392 154.484 291.933 155.25 291.6C156.017 291.25 156.892 291.075 157.875 291.075C159.392 291.075 160.617 291.458 161.55 292.225C162.484 292.992 162.984 294.042 163.05 295.375H160.775C160.725 294.658 160.434 294.083 159.9 293.65C159.384 293.217 158.684 293 157.8 293C156.984 293 156.334 293.175 155.85 293.525C155.367 293.875 155.125 294.333 155.125 294.9C155.125 295.35 155.267 295.725 155.55 296.025C155.85 296.308 156.217 296.542 156.65 296.725C157.1 296.892 157.717 297.083 158.5 297.3C159.484 297.567 160.284 297.833 160.9 298.1C161.517 298.35 162.042 298.733 162.475 299.25C162.925 299.767 163.159 300.442 163.175 301.275C163.175 302.025 162.967 302.7 162.55 303.3C162.134 303.9 161.542 304.375 160.775 304.725C160.025 305.058 159.159 305.225 158.175 305.225ZM178.887 297.625C178.887 298.058 178.862 298.517 178.812 299H167.862C167.945 300.35 168.404 301.408 169.237 302.175C170.087 302.925 171.112 303.3 172.312 303.3C173.295 303.3 174.112 303.075 174.762 302.625C175.429 302.158 175.895 301.542 176.162 300.775H178.612C178.245 302.092 177.512 303.167 176.412 304C175.312 304.817 173.945 305.225 172.312 305.225C171.012 305.225 169.845 304.933 168.812 304.35C167.795 303.767 166.995 302.942 166.412 301.875C165.829 300.792 165.537 299.542 165.537 298.125C165.537 296.708 165.82 295.467 166.387 294.4C166.954 293.333 167.745 292.517 168.762 291.95C169.795 291.367 170.979 291.075 172.312 291.075C173.612 291.075 174.762 291.358 175.762 291.925C176.762 292.492 177.529 293.275 178.062 294.275C178.612 295.258 178.887 296.375 178.887 297.625ZM176.537 297.15C176.537 296.283 176.345 295.542 175.962 294.925C175.579 294.292 175.054 293.817 174.387 293.5C173.737 293.167 173.012 293 172.212 293C171.062 293 170.079 293.367 169.262 294.1C168.462 294.833 168.004 295.85 167.887 297.15H176.537ZM186.74 305.225C185.69 305.225 184.748 305.05 183.915 304.7C183.082 304.333 182.423 303.833 181.94 303.2C181.457 302.55 181.19 301.808 181.14 300.975H183.49C183.557 301.658 183.873 302.217 184.44 302.65C185.023 303.083 185.782 303.3 186.715 303.3C187.582 303.3 188.265 303.108 188.765 302.725C189.265 302.342 189.515 301.858 189.515 301.275C189.515 300.675 189.248 300.233 188.715 299.95C188.182 299.65 187.357 299.358 186.24 299.075C185.223 298.808 184.39 298.542 183.74 298.275C183.107 297.992 182.557 297.583 182.09 297.05C181.64 296.5 181.415 295.783 181.415 294.9C181.415 294.2 181.623 293.558 182.04 292.975C182.457 292.392 183.048 291.933 183.815 291.6C184.582 291.25 185.457 291.075 186.44 291.075C187.957 291.075 189.182 291.458 190.115 292.225C191.048 292.992 191.548 294.042 191.615 295.375H189.34C189.29 294.658 188.998 294.083 188.465 293.65C187.948 293.217 187.248 293 186.365 293C185.548 293 184.898 293.175 184.415 293.525C183.932 293.875 183.69 294.333 183.69 294.9C183.69 295.35 183.832 295.725 184.115 296.025C184.415 296.308 184.782 296.542 185.215 296.725C185.665 296.892 186.282 297.083 187.065 297.3C188.048 297.567 188.848 297.833 189.465 298.1C190.082 298.35 190.607 298.733 191.04 299.25C191.49 299.767 191.723 300.442 191.74 301.275C191.74 302.025 191.532 302.7 191.115 303.3C190.698 303.9 190.107 304.375 189.34 304.725C188.59 305.058 187.723 305.225 186.74 305.225ZM199.801 305.225C198.751 305.225 197.81 305.05 196.976 304.7C196.143 304.333 195.485 303.833 195.001 303.2C194.518 302.55 194.251 301.808 194.201 300.975H196.551C196.618 301.658 196.935 302.217 197.501 302.65C198.085 303.083 198.843 303.3 199.776 303.3C200.643 303.3 201.326 303.108 201.826 302.725C202.326 302.342 202.576 301.858 202.576 301.275C202.576 300.675 202.31 300.233 201.776 299.95C201.243 299.65 200.418 299.358 199.301 299.075C198.285 298.808 197.451 298.542 196.801 298.275C196.168 297.992 195.618 297.583 195.151 297.05C194.701 296.5 194.476 295.783 194.476 294.9C194.476 294.2 194.685 293.558 195.101 292.975C195.518 292.392 196.11 291.933 196.876 291.6C197.643 291.25 198.518 291.075 199.501 291.075C201.018 291.075 202.243 291.458 203.176 292.225C204.11 292.992 204.61 294.042 204.676 295.375H202.401C202.351 294.658 202.06 294.083 201.526 293.65C201.01 293.217 200.31 293 199.426 293C198.61 293 197.96 293.175 197.476 293.525C196.993 293.875 196.751 294.333 196.751 294.9C196.751 295.35 196.893 295.725 197.176 296.025C197.476 296.308 197.843 296.542 198.276 296.725C198.726 296.892 199.343 297.083 200.126 297.3C201.11 297.567 201.91 297.833 202.526 298.1C203.143 298.35 203.668 298.733 204.101 299.25C204.551 299.767 204.785 300.442 204.801 301.275C204.801 302.025 204.593 302.7 204.176 303.3C203.76 303.9 203.168 304.375 202.401 304.725C201.651 305.058 200.785 305.225 199.801 305.225ZM224.488 291.05C225.555 291.05 226.505 291.275 227.338 291.725C228.171 292.158 228.83 292.817 229.313 293.7C229.796 294.583 230.038 295.658 230.038 296.925V305H227.788V297.25C227.788 295.883 227.446 294.842 226.763 294.125C226.096 293.392 225.188 293.025 224.038 293.025C222.855 293.025 221.913 293.408 221.213 294.175C220.513 294.925 220.163 296.017 220.163 297.45V305H217.913V297.25C217.913 295.883 217.571 294.842 216.888 294.125C216.221 293.392 215.313 293.025 214.163 293.025C212.98 293.025 212.038 293.408 211.338 294.175C210.638 294.925 210.288 296.017 210.288 297.45V305H208.013V291.3H210.288V293.275C210.738 292.558 211.338 292.008 212.088 291.625C212.855 291.242 213.696 291.05 214.613 291.05C215.763 291.05 216.78 291.308 217.663 291.825C218.546 292.342 219.205 293.1 219.638 294.1C220.021 293.133 220.655 292.383 221.538 291.85C222.421 291.317 223.405 291.05 224.488 291.05ZM246.27 297.625C246.27 298.058 246.245 298.517 246.195 299H235.245C235.328 300.35 235.786 301.408 236.62 302.175C237.47 302.925 238.495 303.3 239.695 303.3C240.678 303.3 241.495 303.075 242.145 302.625C242.811 302.158 243.278 301.542 243.545 300.775H245.995C245.628 302.092 244.895 303.167 243.795 304C242.695 304.817 241.328 305.225 239.695 305.225C238.395 305.225 237.228 304.933 236.195 304.35C235.178 303.767 234.378 302.942 233.795 301.875C233.211 300.792 232.92 299.542 232.92 298.125C232.92 296.708 233.203 295.467 233.77 294.4C234.336 293.333 235.128 292.517 236.145 291.95C237.178 291.367 238.361 291.075 239.695 291.075C240.995 291.075 242.145 291.358 243.145 291.925C244.145 292.492 244.911 293.275 245.445 294.275C245.995 295.258 246.27 296.375 246.27 297.625ZM243.92 297.15C243.92 296.283 243.728 295.542 243.345 294.925C242.961 294.292 242.436 293.817 241.77 293.5C241.12 293.167 240.395 293 239.595 293C238.445 293 237.461 293.367 236.645 294.1C235.845 294.833 235.386 295.85 235.27 297.15H243.92ZM255.948 291.05C257.614 291.05 258.964 291.558 259.998 292.575C261.031 293.575 261.548 295.025 261.548 296.925V305H259.298V297.25C259.298 295.883 258.956 294.842 258.273 294.125C257.589 293.392 256.656 293.025 255.473 293.025C254.273 293.025 253.314 293.4 252.598 294.15C251.898 294.9 251.548 295.992 251.548 297.425V305H249.273V291.3H251.548V293.25C251.998 292.55 252.606 292.008 253.373 291.625C254.156 291.242 255.014 291.05 255.948 291.05ZM268.039 293.175V301.25C268.039 301.917 268.181 302.392 268.464 302.675C268.747 302.942 269.239 303.075 269.939 303.075H271.614V305H269.564C268.297 305 267.347 304.708 266.714 304.125C266.081 303.542 265.764 302.583 265.764 301.25V293.175H263.989V291.3H265.764V287.85H268.039V291.3H271.614V293.175H268.039ZM279.22 305.225C278.17 305.225 277.229 305.05 276.395 304.7C275.562 304.333 274.904 303.833 274.42 303.2C273.937 302.55 273.67 301.808 273.62 300.975H275.97C276.037 301.658 276.354 302.217 276.92 302.65C277.504 303.083 278.262 303.3 279.195 303.3C280.062 303.3 280.745 303.108 281.245 302.725C281.745 302.342 281.995 301.858 281.995 301.275C281.995 300.675 281.729 300.233 281.195 299.95C280.662 299.65 279.837 299.358 278.72 299.075C277.704 298.808 276.87 298.542 276.22 298.275C275.587 297.992 275.037 297.583 274.57 297.05C274.12 296.5 273.895 295.783 273.895 294.9C273.895 294.2 274.104 293.558 274.52 292.975C274.937 292.392 275.529 291.933 276.295 291.6C277.062 291.25 277.937 291.075 278.92 291.075C280.437 291.075 281.662 291.458 282.595 292.225C283.529 292.992 284.029 294.042 284.095 295.375H281.82C281.77 294.658 281.479 294.083 280.945 293.65C280.429 293.217 279.729 293 278.845 293C278.029 293 277.379 293.175 276.895 293.525C276.412 293.875 276.17 294.333 276.17 294.9C276.17 295.35 276.312 295.725 276.595 296.025C276.895 296.308 277.262 296.542 277.695 296.725C278.145 296.892 278.762 297.083 279.545 297.3C280.529 297.567 281.329 297.833 281.945 298.1C282.562 298.35 283.087 298.733 283.52 299.25C283.97 299.767 284.204 300.442 284.22 301.275C284.22 302.025 284.012 302.7 283.595 303.3C283.179 303.9 282.587 304.375 281.82 304.725C281.07 305.058 280.204 305.225 279.22 305.225Z" fill="white"/>
<path d="M74.5 304.276H94.362" stroke="white" stroke-width="3" stroke-linecap="round" stroke-linejoin="round"/>
<path d="M91.25 282L88.875 284.375L93.625 289.125L96 286.75L91.25 282ZM86.5 286.75L77 296.25V301H81.75L91.25 291.5L86.5 286.75Z" fill="white"/>
<path d="M163.876 435.925V441.75H170.226V443.625H163.876V449.625H170.976V451.5H161.601V434.05H170.976V435.925H163.876ZM181.569 451.5L178.319 446.4L175.194 451.5H172.819L177.244 444.7L172.819 437.8H175.394L178.644 442.875L181.744 437.8H184.119L179.719 444.575L184.144 451.5H181.569ZM188.657 440.325C189.107 439.542 189.773 438.892 190.657 438.375C191.557 437.842 192.598 437.575 193.782 437.575C194.998 437.575 196.098 437.867 197.082 438.45C198.082 439.033 198.865 439.858 199.432 440.925C199.998 441.975 200.282 443.2 200.282 444.6C200.282 445.983 199.998 447.217 199.432 448.3C198.865 449.383 198.082 450.225 197.082 450.825C196.098 451.425 194.998 451.725 193.782 451.725C192.615 451.725 191.582 451.467 190.682 450.95C189.798 450.417 189.123 449.758 188.657 448.975V458H186.382V437.8H188.657V440.325ZM197.957 444.6C197.957 443.567 197.748 442.667 197.332 441.9C196.915 441.133 196.348 440.55 195.632 440.15C194.932 439.75 194.157 439.55 193.307 439.55C192.473 439.55 191.698 439.758 190.982 440.175C190.282 440.575 189.715 441.167 189.282 441.95C188.865 442.717 188.657 443.608 188.657 444.625C188.657 445.658 188.865 446.567 189.282 447.35C189.715 448.117 190.282 448.708 190.982 449.125C191.698 449.525 192.473 449.725 193.307 449.725C194.157 449.725 194.932 449.525 195.632 449.125C196.348 448.708 196.915 448.117 197.332 447.35C197.748 446.567 197.957 445.65 197.957 444.6ZM205.551 433V451.5H203.276V433H205.551ZM215.403 451.725C214.12 451.725 212.953 451.433 211.903 450.85C210.87 450.267 210.053 449.442 209.453 448.375C208.87 447.292 208.578 446.042 208.578 444.625C208.578 443.225 208.878 441.992 209.478 440.925C210.095 439.842 210.928 439.017 211.978 438.45C213.028 437.867 214.203 437.575 215.503 437.575C216.803 437.575 217.978 437.867 219.028 438.45C220.078 439.017 220.903 439.833 221.503 440.9C222.12 441.967 222.428 443.208 222.428 444.625C222.428 446.042 222.112 447.292 221.478 448.375C220.862 449.442 220.02 450.267 218.953 450.85C217.887 451.433 216.703 451.725 215.403 451.725ZM215.403 449.725C216.22 449.725 216.987 449.533 217.703 449.15C218.42 448.767 218.995 448.192 219.428 447.425C219.878 446.658 220.103 445.725 220.103 444.625C220.103 443.525 219.887 442.592 219.453 441.825C219.02 441.058 218.453 440.492 217.753 440.125C217.053 439.742 216.295 439.55 215.478 439.55C214.645 439.55 213.878 439.742 213.178 440.125C212.495 440.492 211.945 441.058 211.528 441.825C211.112 442.592 210.903 443.525 210.903 444.625C210.903 445.742 211.103 446.683 211.503 447.45C211.92 448.217 212.47 448.792 213.153 449.175C213.837 449.542 214.587 449.725 215.403 449.725ZM227.695 440.025C228.095 439.242 228.661 438.633 229.395 438.2C230.145 437.767 231.053 437.55 232.12 437.55V439.9H231.52C228.97 439.9 227.695 441.283 227.695 444.05V451.5H225.42V437.8H227.695V440.025ZM247.246 444.125C247.246 444.558 247.221 445.017 247.171 445.5H236.221C236.304 446.85 236.762 447.908 237.596 448.675C238.446 449.425 239.471 449.8 240.671 449.8C241.654 449.8 242.471 449.575 243.121 449.125C243.787 448.658 244.254 448.042 244.521 447.275H246.971C246.604 448.592 245.871 449.667 244.771 450.5C243.671 451.317 242.304 451.725 240.671 451.725C239.371 451.725 238.204 451.433 237.171 450.85C236.154 450.267 235.354 449.442 234.771 448.375C234.187 447.292 233.896 446.042 233.896 444.625C233.896 443.208 234.179 441.967 234.746 440.9C235.312 439.833 236.104 439.017 237.121 438.45C238.154 437.867 239.337 437.575 240.671 437.575C241.971 437.575 243.121 437.858 244.121 438.425C245.121 438.992 245.887 439.775 246.421 440.775C246.971 441.758 247.246 442.875 247.246 444.125ZM244.896 443.65C244.896 442.783 244.704 442.042 244.321 441.425C243.937 440.792 243.412 440.317 242.746 440C242.096 439.667 241.371 439.5 240.571 439.5C239.421 439.5 238.437 439.867 237.621 440.6C236.821 441.333 236.362 442.35 236.246 443.65H244.896Z" fill="white"/>
<path d="M70.5992 433.508C70.1018 433.589 69.6564 433.869 69.361 434.286C69.0655 434.703 68.9443 435.222 69.0239 435.73C69.1034 436.239 69.3773 436.694 69.7853 436.995C70.1933 437.297 70.7019 437.421 71.1993 437.34H76.8253L77.1629 438.298L78.7006 443.088L80.2384 447.878C80.3885 448.376 81.0261 448.836 81.5137 448.836H94.6411C95.1662 448.836 95.7663 448.376 95.9163 447.878L98.9544 438.298C99.1044 437.8 98.8794 437.34 98.3543 437.34H81.7012L80.2759 434.581C80.1241 434.264 79.8897 433.996 79.5986 433.807C79.3074 433.618 78.9707 433.514 78.6256 433.508L71.1242 433.508C71.012 433.497 70.899 433.497 70.7867 433.508C70.7117 433.503 70.6366 433.503 70.5616 433.508L70.5992 433.508ZM82.4513 452.668C81.4011 452.668 80.576 453.511 80.576 454.584C80.576 455.657 81.4011 456.5 82.4513 456.5C83.5015 456.5 84.3267 455.657 84.3267 454.584C84.3267 453.511 83.5015 452.668 82.4513 452.668ZM93.7034 452.668C92.6532 452.668 91.8281 453.511 91.8281 454.584C91.8281 455.657 92.6532 456.5 93.7034 456.5C94.7536 456.5 95.5788 455.657 95.5788 454.584C95.5788 453.511 94.7536 452.668 93.7034 452.668Z" fill="white"/>
</g>
<defs>
<filter id="filter0_d_52_921" x="0" y="0" width="364" height="1088" filterUnits="userSpaceOnUse" color-interpolation-filters="sRGB">
<feFlood flood-opacity="0" result="BackgroundImageFix"/>
<feColorMatrix in="SourceAlpha" type="matrix" values="0 0 0 0 0 0 0 0 0 0 0 0 0 0 0 0 0 0 127 0" result="hardAlpha"/>
<feOffset dy="4"/>
<feGaussianBlur stdDeviation="2"/>
<feComposite in2="hardAlpha" operator="out"/>
<feColorMatrix type="matrix" values="0 0 0 0 0 0 0 0 0 0 0 0 0 0 0 0 0 0 0.25 0"/>
<feBlend mode="normal" in2="BackgroundImageFix" result="effect1_dropShadow_52_921"/>
<feBlend mode="normal" in="SourceGraphic" in2="effect1_dropShadow_52_921" result="shape"/>
</filter>
<clipPath id="clip0_52_921">
<rect width="356" height="1080" fill="white" transform="translate(4)"/>
</clipPath>
</defs>
</svg>
