<svg width="441" height="783" viewBox="0 0 441 783" fill="none" xmlns="http://www.w3.org/2000/svg">
<g clip-path="url(#clip0_66_1734)">
<path d="M0 20C0 8.95431 8.95431 0 20 0H421C432.046 0 441 8.95431 441 20V763C441 774.046 432.046 783 421 783H20C8.95429 783 0 774.046 0 763V20Z" fill="#6964ED"/>
<path d="M175.616 433.032L171.712 428.808C170.752 429.085 169.696 429.224 168.544 429.224C166.475 429.224 164.565 428.744 162.816 427.784C161.088 426.803 159.712 425.448 158.688 423.72C157.685 421.971 157.184 420.008 157.184 417.832C157.184 415.656 157.685 413.704 158.688 411.976C159.712 410.248 161.088 408.904 162.816 407.944C164.565 406.963 166.475 406.472 168.544 406.472C170.635 406.472 172.544 406.963 174.272 407.944C176.021 408.904 177.397 410.248 178.4 411.976C179.403 413.704 179.904 415.656 179.904 417.832C179.904 419.88 179.456 421.736 178.56 423.4C177.685 425.043 176.469 426.365 174.912 427.368L180.256 433.032H175.616ZM160.928 417.832C160.928 419.475 161.248 420.925 161.888 422.184C162.549 423.421 163.456 424.381 164.608 425.064C165.76 425.725 167.072 426.056 168.544 426.056C170.016 426.056 171.328 425.725 172.48 425.064C173.632 424.381 174.528 423.421 175.168 422.184C175.829 420.925 176.16 419.475 176.16 417.832C176.16 416.189 175.829 414.749 175.168 413.512C174.528 412.275 173.632 411.325 172.48 410.664C171.328 410.003 170.016 409.672 168.544 409.672C167.072 409.672 165.76 410.003 164.608 410.664C163.456 411.325 162.549 412.275 161.888 413.512C161.248 414.749 160.928 416.189 160.928 417.832ZM199.556 411.368V429H195.908V426.92C195.332 427.645 194.574 428.221 193.636 428.648C192.718 429.053 191.737 429.256 190.692 429.256C189.305 429.256 188.057 428.968 186.948 428.392C185.86 427.816 184.996 426.963 184.356 425.832C183.737 424.701 183.428 423.336 183.428 421.736V411.368H187.044V421.192C187.044 422.771 187.438 423.987 188.228 424.84C189.017 425.672 190.094 426.088 191.46 426.088C192.825 426.088 193.902 425.672 194.692 424.84C195.502 423.987 195.908 422.771 195.908 421.192V411.368H199.556ZM220.529 419.752C220.529 420.413 220.486 421.011 220.401 421.544H206.929C207.035 422.952 207.558 424.083 208.497 424.936C209.435 425.789 210.587 426.216 211.953 426.216C213.915 426.216 215.302 425.395 216.113 423.752H220.049C219.515 425.373 218.545 426.707 217.137 427.752C215.75 428.776 214.022 429.288 211.953 429.288C210.267 429.288 208.753 428.915 207.409 428.168C206.086 427.4 205.041 426.333 204.273 424.968C203.526 423.581 203.153 421.981 203.153 420.168C203.153 418.355 203.515 416.765 204.241 415.4C204.987 414.013 206.022 412.947 207.345 412.2C208.689 411.453 210.225 411.08 211.953 411.08C213.617 411.08 215.099 411.443 216.401 412.168C217.702 412.893 218.715 413.917 219.441 415.24C220.166 416.541 220.529 418.045 220.529 419.752ZM216.721 418.6C216.699 417.256 216.219 416.179 215.281 415.368C214.342 414.557 213.179 414.152 211.793 414.152C210.534 414.152 209.457 414.557 208.561 415.368C207.665 416.157 207.131 417.235 206.961 418.6H216.721ZM230.519 429.288C229.132 429.288 227.884 429.043 226.775 428.552C225.687 428.04 224.823 427.357 224.183 426.504C223.543 425.629 223.201 424.659 223.159 423.592H226.935C226.999 424.339 227.351 424.968 227.991 425.48C228.652 425.971 229.473 426.216 230.455 426.216C231.479 426.216 232.268 426.024 232.823 425.64C233.399 425.235 233.687 424.723 233.687 424.104C233.687 423.443 233.367 422.952 232.727 422.632C232.108 422.312 231.116 421.96 229.751 421.576C228.428 421.213 227.351 420.861 226.519 420.52C225.687 420.179 224.961 419.656 224.343 418.952C223.745 418.248 223.447 417.32 223.447 416.168C223.447 415.229 223.724 414.376 224.279 413.608C224.833 412.819 225.623 412.2 226.647 411.752C227.692 411.304 228.887 411.08 230.231 411.08C232.236 411.08 233.847 411.592 235.063 412.616C236.3 413.619 236.961 414.995 237.047 416.744H233.399C233.335 415.955 233.015 415.325 232.439 414.856C231.863 414.387 231.084 414.152 230.103 414.152C229.143 414.152 228.407 414.333 227.895 414.696C227.383 415.059 227.127 415.539 227.127 416.136C227.127 416.605 227.297 417 227.639 417.32C227.98 417.64 228.396 417.896 228.887 418.088C229.377 418.259 230.103 418.483 231.063 418.76C232.343 419.101 233.388 419.453 234.199 419.816C235.031 420.157 235.745 420.669 236.343 421.352C236.94 422.035 237.249 422.941 237.271 424.072C237.271 425.075 236.993 425.971 236.439 426.76C235.884 427.549 235.095 428.168 234.071 428.616C233.068 429.064 231.884 429.288 230.519 429.288ZM245.469 414.344V424.104C245.469 424.765 245.618 425.245 245.917 425.544C246.237 425.821 246.77 425.96 247.517 425.96H249.757V429H246.877C245.234 429 243.975 428.616 243.101 427.848C242.226 427.08 241.789 425.832 241.789 424.104V414.344H239.709V411.368H241.789V406.984H245.469V411.368H249.757V414.344H245.469ZM254.975 409.032C254.313 409.032 253.759 408.808 253.311 408.36C252.863 407.912 252.639 407.357 252.639 406.696C252.639 406.035 252.863 405.48 253.311 405.032C253.759 404.584 254.313 404.36 254.975 404.36C255.615 404.36 256.159 404.584 256.607 405.032C257.055 405.48 257.279 406.035 257.279 406.696C257.279 407.357 257.055 407.912 256.607 408.36C256.159 408.808 255.615 409.032 254.975 409.032ZM256.767 411.368V429H253.119V411.368H256.767ZM269.204 429.288C267.54 429.288 266.036 428.915 264.692 428.168C263.348 427.4 262.292 426.333 261.524 424.968C260.756 423.581 260.372 421.981 260.372 420.168C260.372 418.376 260.767 416.787 261.556 415.4C262.346 414.013 263.423 412.947 264.788 412.2C266.154 411.453 267.679 411.08 269.364 411.08C271.05 411.08 272.575 411.453 273.94 412.2C275.306 412.947 276.383 414.013 277.172 415.4C277.962 416.787 278.356 418.376 278.356 420.168C278.356 421.96 277.951 423.549 277.14 424.936C276.33 426.323 275.22 427.4 273.812 428.168C272.426 428.915 270.89 429.288 269.204 429.288ZM269.204 426.12C270.143 426.12 271.018 425.896 271.828 425.448C272.66 425 273.332 424.328 273.844 423.432C274.356 422.536 274.612 421.448 274.612 420.168C274.612 418.888 274.367 417.811 273.876 416.936C273.386 416.04 272.735 415.368 271.924 414.92C271.114 414.472 270.239 414.248 269.3 414.248C268.362 414.248 267.487 414.472 266.676 414.92C265.887 415.368 265.258 416.04 264.788 416.936C264.319 417.811 264.084 418.888 264.084 420.168C264.084 422.067 264.564 423.539 265.524 424.584C266.506 425.608 267.732 426.12 269.204 426.12ZM290.859 411.08C292.245 411.08 293.483 411.368 294.571 411.944C295.68 412.52 296.544 413.373 297.163 414.504C297.781 415.635 298.091 417 298.091 418.6V429H294.475V419.144C294.475 417.565 294.08 416.36 293.291 415.528C292.501 414.675 291.424 414.248 290.059 414.248C288.693 414.248 287.605 414.675 286.795 415.528C286.005 416.36 285.611 417.565 285.611 419.144V429H281.963V411.368H285.611V413.384C286.208 412.659 286.965 412.093 287.883 411.688C288.821 411.283 289.813 411.08 290.859 411.08ZM309.144 429.288C307.757 429.288 306.509 429.043 305.4 428.552C304.312 428.04 303.448 427.357 302.808 426.504C302.168 425.629 301.826 424.659 301.784 423.592H305.56C305.624 424.339 305.976 424.968 306.616 425.48C307.277 425.971 308.098 426.216 309.08 426.216C310.104 426.216 310.893 426.024 311.448 425.64C312.024 425.235 312.312 424.723 312.312 424.104C312.312 423.443 311.992 422.952 311.352 422.632C310.733 422.312 309.741 421.96 308.376 421.576C307.053 421.213 305.976 420.861 305.144 420.52C304.312 420.179 303.586 419.656 302.968 418.952C302.37 418.248 302.072 417.32 302.072 416.168C302.072 415.229 302.349 414.376 302.904 413.608C303.458 412.819 304.248 412.2 305.272 411.752C306.317 411.304 307.512 411.08 308.856 411.08C310.861 411.08 312.472 411.592 313.688 412.616C314.925 413.619 315.586 414.995 315.672 416.744H312.024C311.96 415.955 311.64 415.325 311.064 414.856C310.488 414.387 309.709 414.152 308.728 414.152C307.768 414.152 307.032 414.333 306.52 414.696C306.008 415.059 305.752 415.539 305.752 416.136C305.752 416.605 305.922 417 306.264 417.32C306.605 417.64 307.021 417.896 307.512 418.088C308.002 418.259 308.728 418.483 309.688 418.76C310.968 419.101 312.013 419.453 312.824 419.816C313.656 420.157 314.37 420.669 314.968 421.352C315.565 422.035 315.874 422.941 315.896 424.072C315.896 425.075 315.618 425.971 315.064 426.76C314.509 427.549 313.72 428.168 312.696 428.616C311.693 429.064 310.509 429.288 309.144 429.288Z" fill="white"/>
<path d="M155.437 97.245C153.734 97.245 152.194 96.9533 150.817 96.37C149.464 95.7867 148.39 94.9467 147.597 93.85C146.804 92.7533 146.395 91.4583 146.372 89.965H151.622C151.692 90.9683 152.042 91.7617 152.672 92.345C153.325 92.9283 154.212 93.22 155.332 93.22C156.475 93.22 157.374 92.9517 158.027 92.415C158.68 91.855 159.007 91.1317 159.007 90.245C159.007 89.5217 158.785 88.9267 158.342 88.46C157.899 87.9933 157.339 87.6317 156.662 87.375C156.009 87.095 155.099 86.7917 153.932 86.465C152.345 85.9983 151.05 85.5433 150.047 85.1C149.067 84.6333 148.215 83.945 147.492 83.035C146.792 82.1017 146.442 80.865 146.442 79.325C146.442 77.8783 146.804 76.6183 147.527 75.545C148.25 74.4717 149.265 73.655 150.572 73.095C151.879 72.5117 153.372 72.22 155.052 72.22C157.572 72.22 159.614 72.8383 161.177 74.075C162.764 75.2883 163.639 76.9917 163.802 79.185H158.412C158.365 78.345 158.004 77.6567 157.327 77.12C156.674 76.56 155.799 76.28 154.702 76.28C153.745 76.28 152.975 76.525 152.392 77.015C151.832 77.505 151.552 78.2167 151.552 79.15C151.552 79.8033 151.762 80.3517 152.182 80.795C152.625 81.215 153.162 81.565 153.792 81.845C154.445 82.1017 155.355 82.405 156.522 82.755C158.109 83.2217 159.404 83.6883 160.407 84.155C161.41 84.6217 162.274 85.3217 162.997 86.255C163.72 87.1883 164.082 88.4133 164.082 89.93C164.082 91.2367 163.744 92.45 163.067 93.57C162.39 94.69 161.399 95.5883 160.092 96.265C158.785 96.9183 157.234 97.245 155.437 97.245ZM186.355 86.885C186.355 87.585 186.308 88.215 186.215 88.775H172.04C172.157 90.175 172.647 91.2717 173.51 92.065C174.373 92.8583 175.435 93.255 176.695 93.255C178.515 93.255 179.81 92.4733 180.58 90.91H185.865C185.305 92.7767 184.232 94.3167 182.645 95.53C181.058 96.72 179.11 97.315 176.8 97.315C174.933 97.315 173.253 96.9067 171.76 96.09C170.29 95.25 169.135 94.0717 168.295 92.555C167.478 91.0383 167.07 89.2883 167.07 87.305C167.07 85.2983 167.478 83.5367 168.295 82.02C169.112 80.5033 170.255 79.3367 171.725 78.52C173.195 77.7033 174.887 77.295 176.8 77.295C178.643 77.295 180.288 77.6917 181.735 78.485C183.205 79.2783 184.337 80.41 185.13 81.88C185.947 83.3267 186.355 84.995 186.355 86.885ZM181.28 85.485C181.257 84.225 180.802 83.2217 179.915 82.475C179.028 81.705 177.943 81.32 176.66 81.32C175.447 81.32 174.42 81.6933 173.58 82.44C172.763 83.1633 172.262 84.1783 172.075 85.485H181.28ZM188.672 87.305C188.672 85.2983 189.08 83.5483 189.897 82.055C190.713 80.5383 191.845 79.3717 193.292 78.555C194.738 77.715 196.395 77.295 198.262 77.295C200.665 77.295 202.648 77.9017 204.212 79.115C205.798 80.305 206.86 81.985 207.397 84.155H202.112C201.832 83.315 201.353 82.6617 200.677 82.195C200.023 81.705 199.207 81.46 198.227 81.46C196.827 81.46 195.718 81.9733 194.902 83C194.085 84.0033 193.677 85.4383 193.677 87.305C193.677 89.1483 194.085 90.5833 194.902 91.61C195.718 92.6133 196.827 93.115 198.227 93.115C200.21 93.115 201.505 92.2283 202.112 90.455H207.397C206.86 92.555 205.798 94.2233 204.212 95.46C202.625 96.6967 200.642 97.315 198.262 97.315C196.395 97.315 194.738 96.9067 193.292 96.09C191.845 95.25 190.713 94.0833 189.897 92.59C189.08 91.0733 188.672 89.3117 188.672 87.305ZM216.691 81.635V91.015C216.691 91.6683 216.843 92.1467 217.146 92.45C217.473 92.73 218.01 92.87 218.756 92.87H221.031V97H217.951C213.821 97 211.756 94.9933 211.756 90.98V81.635H209.446V77.61H211.756V72.815H216.691V77.61H221.031V81.635H216.691ZM227.041 75.3C226.177 75.3 225.454 75.0317 224.871 74.495C224.311 73.935 224.031 73.2467 224.031 72.43C224.031 71.6133 224.311 70.9367 224.871 70.4C225.454 69.84 226.177 69.56 227.041 69.56C227.904 69.56 228.616 69.84 229.176 70.4C229.759 70.9367 230.051 71.6133 230.051 72.43C230.051 73.2467 229.759 73.935 229.176 74.495C228.616 75.0317 227.904 75.3 227.041 75.3ZM229.456 77.61V97H224.556V77.61H229.456ZM242.907 97.315C241.04 97.315 239.36 96.9067 237.867 96.09C236.374 95.25 235.195 94.0717 234.332 92.555C233.492 91.0383 233.072 89.2883 233.072 87.305C233.072 85.3217 233.504 83.5717 234.367 82.055C235.254 80.5383 236.455 79.3717 237.972 78.555C239.489 77.715 241.18 77.295 243.047 77.295C244.914 77.295 246.605 77.715 248.122 78.555C249.639 79.3717 250.829 80.5383 251.692 82.055C252.579 83.5717 253.022 85.3217 253.022 87.305C253.022 89.2883 252.567 91.0383 251.657 92.555C250.77 94.0717 249.557 95.25 248.017 96.09C246.5 96.9067 244.797 97.315 242.907 97.315ZM242.907 93.045C243.794 93.045 244.622 92.835 245.392 92.415C246.185 91.9717 246.815 91.3183 247.282 90.455C247.749 89.5917 247.982 88.5417 247.982 87.305C247.982 85.4617 247.492 84.05 246.512 83.07C245.555 82.0667 244.377 81.565 242.977 81.565C241.577 81.565 240.399 82.0667 239.442 83.07C238.509 84.05 238.042 85.4617 238.042 87.305C238.042 89.1483 238.497 90.5717 239.407 91.575C240.34 92.555 241.507 93.045 242.907 93.045ZM267.361 77.33C269.671 77.33 271.538 78.065 272.961 79.535C274.385 80.9817 275.096 83.0117 275.096 85.625V97H270.196V86.29C270.196 84.75 269.811 83.5717 269.041 82.755C268.271 81.915 267.221 81.495 265.891 81.495C264.538 81.495 263.465 81.915 262.671 82.755C261.901 83.5717 261.516 84.75 261.516 86.29V97H256.616V77.61H261.516V80.025C262.17 79.185 262.998 78.5317 264.001 78.065C265.028 77.575 266.148 77.33 267.361 77.33ZM287.176 97.315C285.589 97.315 284.166 97.035 282.906 96.475C281.646 95.8917 280.642 95.11 279.896 94.13C279.172 93.15 278.776 92.065 278.706 90.875H283.641C283.734 91.6217 284.096 92.24 284.726 92.73C285.379 93.22 286.184 93.465 287.141 93.465C288.074 93.465 288.797 93.2783 289.311 92.905C289.847 92.5317 290.116 92.0533 290.116 91.47C290.116 90.84 289.789 90.3733 289.136 90.07C288.506 89.7433 287.491 89.3933 286.091 89.02C284.644 88.67 283.454 88.3083 282.521 87.935C281.611 87.5617 280.817 86.99 280.141 86.22C279.487 85.45 279.161 84.4117 279.161 83.105C279.161 82.0317 279.464 81.0517 280.071 80.165C280.701 79.2783 281.587 78.5783 282.731 78.065C283.897 77.5517 285.262 77.295 286.826 77.295C289.136 77.295 290.979 77.8783 292.356 79.045C293.732 80.1883 294.491 81.74 294.631 83.7H289.941C289.871 82.93 289.544 82.3233 288.961 81.88C288.401 81.4133 287.642 81.18 286.686 81.18C285.799 81.18 285.111 81.3433 284.621 81.67C284.154 81.9967 283.921 82.4517 283.921 83.035C283.921 83.6883 284.247 84.19 284.901 84.54C285.554 84.8667 286.569 85.205 287.946 85.555C289.346 85.905 290.501 86.2667 291.411 86.64C292.321 87.0133 293.102 87.5967 293.756 88.39C294.432 89.16 294.782 90.1867 294.806 91.47C294.806 92.59 294.491 93.5933 293.861 94.48C293.254 95.3667 292.367 96.0667 291.201 96.58C290.057 97.07 288.716 97.315 287.176 97.315Z" fill="white"/>
<path d="M399 264L43 264" stroke="white" stroke-width="0.3"/>
<path d="M399 125L43 125" stroke="white"/>
<path d="M174.312 166.175C173.162 166.175 172.129 165.975 171.212 165.575C170.312 165.158 169.604 164.592 169.087 163.875C168.571 163.142 168.304 162.3 168.287 161.35H170.712C170.796 162.167 171.129 162.858 171.712 163.425C172.312 163.975 173.179 164.25 174.312 164.25C175.396 164.25 176.246 163.983 176.862 163.45C177.496 162.9 177.812 162.2 177.812 161.35C177.812 160.683 177.629 160.142 177.262 159.725C176.896 159.308 176.437 158.992 175.887 158.775C175.337 158.558 174.596 158.325 173.662 158.075C172.512 157.775 171.587 157.475 170.887 157.175C170.204 156.875 169.612 156.408 169.112 155.775C168.629 155.125 168.387 154.258 168.387 153.175C168.387 152.225 168.629 151.383 169.112 150.65C169.596 149.917 170.271 149.35 171.137 148.95C172.021 148.55 173.029 148.35 174.162 148.35C175.796 148.35 177.129 148.758 178.162 149.575C179.212 150.392 179.804 151.475 179.937 152.825H177.437C177.354 152.158 177.004 151.575 176.387 151.075C175.771 150.558 174.954 150.3 173.937 150.3C172.987 150.3 172.212 150.55 171.612 151.05C171.012 151.533 170.712 152.217 170.712 153.1C170.712 153.733 170.887 154.25 171.237 154.65C171.604 155.05 172.046 155.358 172.562 155.575C173.096 155.775 173.837 156.008 174.787 156.275C175.937 156.592 176.862 156.908 177.562 157.225C178.262 157.525 178.862 158 179.362 158.65C179.862 159.283 180.112 160.15 180.112 161.25C180.112 162.1 179.887 162.9 179.437 163.65C178.987 164.4 178.321 165.008 177.437 165.475C176.554 165.942 175.512 166.175 174.312 166.175ZM195.96 158.625C195.96 159.058 195.935 159.517 195.885 160H184.935C185.018 161.35 185.477 162.408 186.31 163.175C187.16 163.925 188.185 164.3 189.385 164.3C190.368 164.3 191.185 164.075 191.835 163.625C192.502 163.158 192.968 162.542 193.235 161.775H195.685C195.318 163.092 194.585 164.167 193.485 165C192.385 165.817 191.018 166.225 189.385 166.225C188.085 166.225 186.918 165.933 185.885 165.35C184.868 164.767 184.068 163.942 183.485 162.875C182.902 161.792 182.61 160.542 182.61 159.125C182.61 157.708 182.893 156.467 183.46 155.4C184.027 154.333 184.818 153.517 185.835 152.95C186.868 152.367 188.052 152.075 189.385 152.075C190.685 152.075 191.835 152.358 192.835 152.925C193.835 153.492 194.602 154.275 195.135 155.275C195.685 156.258 195.96 157.375 195.96 158.625ZM193.61 158.15C193.61 157.283 193.418 156.542 193.035 155.925C192.652 155.292 192.127 154.817 191.46 154.5C190.81 154.167 190.085 154 189.285 154C188.135 154 187.152 154.367 186.335 155.1C185.535 155.833 185.077 156.85 184.96 158.15H193.61ZM198.113 159.125C198.113 157.708 198.396 156.475 198.963 155.425C199.53 154.358 200.313 153.533 201.313 152.95C202.33 152.367 203.488 152.075 204.788 152.075C206.471 152.075 207.855 152.483 208.938 153.3C210.038 154.117 210.763 155.25 211.113 156.7H208.663C208.43 155.867 207.971 155.208 207.288 154.725C206.621 154.242 205.788 154 204.788 154C203.488 154 202.438 154.45 201.638 155.35C200.838 156.233 200.438 157.492 200.438 159.125C200.438 160.775 200.838 162.05 201.638 162.95C202.438 163.85 203.488 164.3 204.788 164.3C205.788 164.3 206.621 164.067 207.288 163.6C207.955 163.133 208.413 162.467 208.663 161.6H211.113C210.746 163 210.013 164.125 208.913 164.975C207.813 165.808 206.438 166.225 204.788 166.225C203.488 166.225 202.33 165.933 201.313 165.35C200.313 164.767 199.53 163.942 198.963 162.875C198.396 161.808 198.113 160.558 198.113 159.125ZM216.924 154.175V162.25C216.924 162.917 217.065 163.392 217.349 163.675C217.632 163.942 218.124 164.075 218.824 164.075H220.499V166H218.449C217.182 166 216.232 165.708 215.599 165.125C214.965 164.542 214.649 163.583 214.649 162.25V154.175H212.874V152.3H214.649V148.85H216.924V152.3H220.499V154.175H216.924ZM224.43 150.075C223.997 150.075 223.63 149.925 223.33 149.625C223.03 149.325 222.88 148.958 222.88 148.525C222.88 148.092 223.03 147.725 223.33 147.425C223.63 147.125 223.997 146.975 224.43 146.975C224.847 146.975 225.197 147.125 225.48 147.425C225.78 147.725 225.93 148.092 225.93 148.525C225.93 148.958 225.78 149.325 225.48 149.625C225.197 149.925 224.847 150.075 224.43 150.075ZM225.53 152.3V166H223.255V152.3H225.53ZM235.382 166.225C234.099 166.225 232.932 165.933 231.882 165.35C230.849 164.767 230.032 163.942 229.432 162.875C228.849 161.792 228.557 160.542 228.557 159.125C228.557 157.725 228.857 156.492 229.457 155.425C230.074 154.342 230.907 153.517 231.957 152.95C233.007 152.367 234.182 152.075 235.482 152.075C236.782 152.075 237.957 152.367 239.007 152.95C240.057 153.517 240.882 154.333 241.482 155.4C242.099 156.467 242.407 157.708 242.407 159.125C242.407 160.542 242.091 161.792 241.457 162.875C240.841 163.942 239.999 164.767 238.932 165.35C237.866 165.933 236.682 166.225 235.382 166.225ZM235.382 164.225C236.199 164.225 236.966 164.033 237.682 163.65C238.399 163.267 238.974 162.692 239.407 161.925C239.857 161.158 240.082 160.225 240.082 159.125C240.082 158.025 239.866 157.092 239.432 156.325C238.999 155.558 238.432 154.992 237.732 154.625C237.032 154.242 236.274 154.05 235.457 154.05C234.624 154.05 233.857 154.242 233.157 154.625C232.474 154.992 231.924 155.558 231.507 156.325C231.091 157.092 230.882 158.025 230.882 159.125C230.882 160.242 231.082 161.183 231.482 161.95C231.899 162.717 232.449 163.292 233.132 163.675C233.816 164.042 234.566 164.225 235.382 164.225ZM252.074 152.05C253.74 152.05 255.09 152.558 256.124 153.575C257.157 154.575 257.674 156.025 257.674 157.925V166H255.424V158.25C255.424 156.883 255.082 155.842 254.399 155.125C253.715 154.392 252.782 154.025 251.599 154.025C250.399 154.025 249.44 154.4 248.724 155.15C248.024 155.9 247.674 156.992 247.674 158.425V166H245.399V152.3H247.674V154.25C248.124 153.55 248.732 153.008 249.499 152.625C250.282 152.242 251.14 152.05 252.074 152.05ZM267.08 150V147.925H271.78V166H269.48V150H267.08Z" fill="white"/>
<path d="M399 198L43 198" stroke="white" stroke-width="0.3"/>
<path d="M171.126 239.175C169.976 239.175 168.943 238.975 168.026 238.575C167.126 238.158 166.418 237.592 165.901 236.875C165.385 236.142 165.118 235.3 165.101 234.35H167.526C167.61 235.167 167.943 235.858 168.526 236.425C169.126 236.975 169.993 237.25 171.126 237.25C172.21 237.25 173.06 236.983 173.676 236.45C174.31 235.9 174.626 235.2 174.626 234.35C174.626 233.683 174.443 233.142 174.076 232.725C173.71 232.308 173.251 231.992 172.701 231.775C172.151 231.558 171.41 231.325 170.476 231.075C169.326 230.775 168.401 230.475 167.701 230.175C167.018 229.875 166.426 229.408 165.926 228.775C165.443 228.125 165.201 227.258 165.201 226.175C165.201 225.225 165.443 224.383 165.926 223.65C166.41 222.917 167.085 222.35 167.951 221.95C168.835 221.55 169.843 221.35 170.976 221.35C172.61 221.35 173.943 221.758 174.976 222.575C176.026 223.392 176.618 224.475 176.751 225.825H174.251C174.168 225.158 173.818 224.575 173.201 224.075C172.585 223.558 171.768 223.3 170.751 223.3C169.801 223.3 169.026 223.55 168.426 224.05C167.826 224.533 167.526 225.217 167.526 226.1C167.526 226.733 167.701 227.25 168.051 227.65C168.418 228.05 168.86 228.358 169.376 228.575C169.91 228.775 170.651 229.008 171.601 229.275C172.751 229.592 173.676 229.908 174.376 230.225C175.076 230.525 175.676 231 176.176 231.65C176.676 232.283 176.926 233.15 176.926 234.25C176.926 235.1 176.701 235.9 176.251 236.65C175.801 237.4 175.135 238.008 174.251 238.475C173.368 238.942 172.326 239.175 171.126 239.175ZM192.774 231.625C192.774 232.058 192.749 232.517 192.699 233H181.749C181.832 234.35 182.291 235.408 183.124 236.175C183.974 236.925 184.999 237.3 186.199 237.3C187.182 237.3 187.999 237.075 188.649 236.625C189.316 236.158 189.782 235.542 190.049 234.775H192.499C192.132 236.092 191.399 237.167 190.299 238C189.199 238.817 187.832 239.225 186.199 239.225C184.899 239.225 183.732 238.933 182.699 238.35C181.682 237.767 180.882 236.942 180.299 235.875C179.716 234.792 179.424 233.542 179.424 232.125C179.424 230.708 179.707 229.467 180.274 228.4C180.841 227.333 181.632 226.517 182.649 225.95C183.682 225.367 184.866 225.075 186.199 225.075C187.499 225.075 188.649 225.358 189.649 225.925C190.649 226.492 191.416 227.275 191.949 228.275C192.499 229.258 192.774 230.375 192.774 231.625ZM190.424 231.15C190.424 230.283 190.232 229.542 189.849 228.925C189.466 228.292 188.941 227.817 188.274 227.5C187.624 227.167 186.899 227 186.099 227C184.949 227 183.966 227.367 183.149 228.1C182.349 228.833 181.891 229.85 181.774 231.15H190.424ZM194.927 232.125C194.927 230.708 195.21 229.475 195.777 228.425C196.344 227.358 197.127 226.533 198.127 225.95C199.144 225.367 200.302 225.075 201.602 225.075C203.285 225.075 204.669 225.483 205.752 226.3C206.852 227.117 207.577 228.25 207.927 229.7H205.477C205.244 228.867 204.785 228.208 204.102 227.725C203.435 227.242 202.602 227 201.602 227C200.302 227 199.252 227.45 198.452 228.35C197.652 229.233 197.252 230.492 197.252 232.125C197.252 233.775 197.652 235.05 198.452 235.95C199.252 236.85 200.302 237.3 201.602 237.3C202.602 237.3 203.435 237.067 204.102 236.6C204.769 236.133 205.227 235.467 205.477 234.6H207.927C207.56 236 206.827 237.125 205.727 237.975C204.627 238.808 203.252 239.225 201.602 239.225C200.302 239.225 199.144 238.933 198.127 238.35C197.127 237.767 196.344 236.942 195.777 235.875C195.21 234.808 194.927 233.558 194.927 232.125ZM213.738 227.175V235.25C213.738 235.917 213.879 236.392 214.163 236.675C214.446 236.942 214.938 237.075 215.638 237.075H217.313V239H215.263C213.996 239 213.046 238.708 212.413 238.125C211.779 237.542 211.463 236.583 211.463 235.25V227.175H209.688V225.3H211.463V221.85H213.738V225.3H217.313V227.175H213.738ZM221.244 223.075C220.811 223.075 220.444 222.925 220.144 222.625C219.844 222.325 219.694 221.958 219.694 221.525C219.694 221.092 219.844 220.725 220.144 220.425C220.444 220.125 220.811 219.975 221.244 219.975C221.661 219.975 222.011 220.125 222.294 220.425C222.594 220.725 222.744 221.092 222.744 221.525C222.744 221.958 222.594 222.325 222.294 222.625C222.011 222.925 221.661 223.075 221.244 223.075ZM222.344 225.3V239H220.069V225.3H222.344ZM232.196 239.225C230.913 239.225 229.746 238.933 228.696 238.35C227.663 237.767 226.846 236.942 226.246 235.875C225.663 234.792 225.371 233.542 225.371 232.125C225.371 230.725 225.671 229.492 226.271 228.425C226.888 227.342 227.721 226.517 228.771 225.95C229.821 225.367 230.996 225.075 232.296 225.075C233.596 225.075 234.771 225.367 235.821 225.95C236.871 226.517 237.696 227.333 238.296 228.4C238.913 229.467 239.221 230.708 239.221 232.125C239.221 233.542 238.905 234.792 238.271 235.875C237.655 236.942 236.813 237.767 235.746 238.35C234.68 238.933 233.496 239.225 232.196 239.225ZM232.196 237.225C233.013 237.225 233.78 237.033 234.496 236.65C235.213 236.267 235.788 235.692 236.221 234.925C236.671 234.158 236.896 233.225 236.896 232.125C236.896 231.025 236.68 230.092 236.246 229.325C235.813 228.558 235.246 227.992 234.546 227.625C233.846 227.242 233.088 227.05 232.271 227.05C231.438 227.05 230.671 227.242 229.971 227.625C229.288 227.992 228.738 228.558 228.321 229.325C227.905 230.092 227.696 231.025 227.696 232.125C227.696 233.242 227.896 234.183 228.296 234.95C228.713 235.717 229.263 236.292 229.946 236.675C230.63 237.042 231.38 237.225 232.196 237.225ZM248.888 225.05C250.554 225.05 251.904 225.558 252.938 226.575C253.971 227.575 254.488 229.025 254.488 230.925V239H252.238V231.25C252.238 229.883 251.896 228.842 251.213 228.125C250.529 227.392 249.596 227.025 248.413 227.025C247.213 227.025 246.254 227.4 245.538 228.15C244.838 228.9 244.488 229.992 244.488 231.425V239H242.213V225.3H244.488V227.25C244.938 226.55 245.546 226.008 246.313 225.625C247.096 225.242 247.954 225.05 248.888 225.05ZM264.219 237.175C266.336 235.475 267.994 234.083 269.194 233C270.394 231.9 271.402 230.758 272.219 229.575C273.052 228.375 273.469 227.2 273.469 226.05C273.469 224.967 273.202 224.117 272.669 223.5C272.152 222.867 271.311 222.55 270.144 222.55C269.011 222.55 268.127 222.908 267.494 223.625C266.877 224.325 266.544 225.267 266.494 226.45H264.294C264.361 224.583 264.927 223.142 265.994 222.125C267.061 221.108 268.436 220.6 270.119 220.6C271.836 220.6 273.194 221.075 274.194 222.025C275.211 222.975 275.719 224.283 275.719 225.95C275.719 227.333 275.302 228.683 274.469 230C273.652 231.3 272.719 232.45 271.669 233.45C270.619 234.433 269.277 235.583 267.644 236.9H276.244V238.8H264.219V237.175Z" fill="white"/>
<path d="M170.955 311.175C169.805 311.175 168.772 310.975 167.855 310.575C166.955 310.158 166.247 309.592 165.73 308.875C165.214 308.142 164.947 307.3 164.93 306.35H167.355C167.439 307.167 167.772 307.858 168.355 308.425C168.955 308.975 169.822 309.25 170.955 309.25C172.039 309.25 172.889 308.983 173.505 308.45C174.139 307.9 174.455 307.2 174.455 306.35C174.455 305.683 174.272 305.142 173.905 304.725C173.539 304.308 173.08 303.992 172.53 303.775C171.98 303.558 171.239 303.325 170.305 303.075C169.155 302.775 168.23 302.475 167.53 302.175C166.847 301.875 166.255 301.408 165.755 300.775C165.272 300.125 165.03 299.258 165.03 298.175C165.03 297.225 165.272 296.383 165.755 295.65C166.239 294.917 166.914 294.35 167.78 293.95C168.664 293.55 169.672 293.35 170.805 293.35C172.439 293.35 173.772 293.758 174.805 294.575C175.855 295.392 176.447 296.475 176.58 297.825H174.08C173.997 297.158 173.647 296.575 173.03 296.075C172.414 295.558 171.597 295.3 170.58 295.3C169.63 295.3 168.855 295.55 168.255 296.05C167.655 296.533 167.355 297.217 167.355 298.1C167.355 298.733 167.53 299.25 167.88 299.65C168.247 300.05 168.689 300.358 169.205 300.575C169.739 300.775 170.48 301.008 171.43 301.275C172.58 301.592 173.505 301.908 174.205 302.225C174.905 302.525 175.505 303 176.005 303.65C176.505 304.283 176.755 305.15 176.755 306.25C176.755 307.1 176.53 307.9 176.08 308.65C175.63 309.4 174.964 310.008 174.08 310.475C173.197 310.942 172.155 311.175 170.955 311.175ZM192.603 303.625C192.603 304.058 192.578 304.517 192.528 305H181.578C181.662 306.35 182.12 307.408 182.953 308.175C183.803 308.925 184.828 309.3 186.028 309.3C187.012 309.3 187.828 309.075 188.478 308.625C189.145 308.158 189.612 307.542 189.878 306.775H192.328C191.962 308.092 191.228 309.167 190.128 310C189.028 310.817 187.662 311.225 186.028 311.225C184.728 311.225 183.562 310.933 182.528 310.35C181.512 309.767 180.712 308.942 180.128 307.875C179.545 306.792 179.253 305.542 179.253 304.125C179.253 302.708 179.537 301.467 180.103 300.4C180.67 299.333 181.462 298.517 182.478 297.95C183.512 297.367 184.695 297.075 186.028 297.075C187.328 297.075 188.478 297.358 189.478 297.925C190.478 298.492 191.245 299.275 191.778 300.275C192.328 301.258 192.603 302.375 192.603 303.625ZM190.253 303.15C190.253 302.283 190.062 301.542 189.678 300.925C189.295 300.292 188.77 299.817 188.103 299.5C187.453 299.167 186.728 299 185.928 299C184.778 299 183.795 299.367 182.978 300.1C182.178 300.833 181.72 301.85 181.603 303.15H190.253ZM194.756 304.125C194.756 302.708 195.039 301.475 195.606 300.425C196.173 299.358 196.956 298.533 197.956 297.95C198.973 297.367 200.131 297.075 201.431 297.075C203.114 297.075 204.498 297.483 205.581 298.3C206.681 299.117 207.406 300.25 207.756 301.7H205.306C205.073 300.867 204.614 300.208 203.931 299.725C203.264 299.242 202.431 299 201.431 299C200.131 299 199.081 299.45 198.281 300.35C197.481 301.233 197.081 302.492 197.081 304.125C197.081 305.775 197.481 307.05 198.281 307.95C199.081 308.85 200.131 309.3 201.431 309.3C202.431 309.3 203.264 309.067 203.931 308.6C204.598 308.133 205.056 307.467 205.306 306.6H207.756C207.389 308 206.656 309.125 205.556 309.975C204.456 310.808 203.081 311.225 201.431 311.225C200.131 311.225 198.973 310.933 197.956 310.35C196.956 309.767 196.173 308.942 195.606 307.875C195.039 306.808 194.756 305.558 194.756 304.125ZM213.567 299.175V307.25C213.567 307.917 213.708 308.392 213.992 308.675C214.275 308.942 214.767 309.075 215.467 309.075H217.142V311H215.092C213.825 311 212.875 310.708 212.242 310.125C211.608 309.542 211.292 308.583 211.292 307.25V299.175H209.517V297.3H211.292V293.85H213.567V297.3H217.142V299.175H213.567ZM221.073 295.075C220.64 295.075 220.273 294.925 219.973 294.625C219.673 294.325 219.523 293.958 219.523 293.525C219.523 293.092 219.673 292.725 219.973 292.425C220.273 292.125 220.64 291.975 221.073 291.975C221.49 291.975 221.84 292.125 222.123 292.425C222.423 292.725 222.573 293.092 222.573 293.525C222.573 293.958 222.423 294.325 222.123 294.625C221.84 294.925 221.49 295.075 221.073 295.075ZM222.173 297.3V311H219.898V297.3H222.173ZM232.025 311.225C230.742 311.225 229.575 310.933 228.525 310.35C227.492 309.767 226.675 308.942 226.075 307.875C225.492 306.792 225.2 305.542 225.2 304.125C225.2 302.725 225.5 301.492 226.1 300.425C226.717 299.342 227.55 298.517 228.6 297.95C229.65 297.367 230.825 297.075 232.125 297.075C233.425 297.075 234.6 297.367 235.65 297.95C236.7 298.517 237.525 299.333 238.125 300.4C238.742 301.467 239.05 302.708 239.05 304.125C239.05 305.542 238.734 306.792 238.1 307.875C237.484 308.942 236.642 309.767 235.575 310.35C234.509 310.933 233.325 311.225 232.025 311.225ZM232.025 309.225C232.842 309.225 233.609 309.033 234.325 308.65C235.042 308.267 235.617 307.692 236.05 306.925C236.5 306.158 236.725 305.225 236.725 304.125C236.725 303.025 236.509 302.092 236.075 301.325C235.642 300.558 235.075 299.992 234.375 299.625C233.675 299.242 232.917 299.05 232.1 299.05C231.267 299.05 230.5 299.242 229.8 299.625C229.117 299.992 228.567 300.558 228.15 301.325C227.734 302.092 227.525 303.025 227.525 304.125C227.525 305.242 227.725 306.183 228.125 306.95C228.542 307.717 229.092 308.292 229.775 308.675C230.459 309.042 231.209 309.225 232.025 309.225ZM248.717 297.05C250.383 297.05 251.733 297.558 252.767 298.575C253.8 299.575 254.317 301.025 254.317 302.925V311H252.067V303.25C252.067 301.883 251.725 300.842 251.042 300.125C250.358 299.392 249.425 299.025 248.242 299.025C247.042 299.025 246.083 299.4 245.367 300.15C244.667 300.9 244.317 301.992 244.317 303.425V311H242.042V297.3H244.317V299.25C244.767 298.55 245.375 298.008 246.142 297.625C246.925 297.242 247.783 297.05 248.717 297.05ZM264.273 297.475C264.39 295.942 264.981 294.742 266.048 293.875C267.115 293.008 268.498 292.575 270.198 292.575C271.331 292.575 272.306 292.783 273.123 293.2C273.956 293.6 274.581 294.15 274.998 294.85C275.431 295.55 275.648 296.342 275.648 297.225C275.648 298.258 275.348 299.15 274.748 299.9C274.165 300.65 273.398 301.133 272.448 301.35V301.475C273.531 301.742 274.39 302.267 275.023 303.05C275.656 303.833 275.973 304.858 275.973 306.125C275.973 307.075 275.756 307.933 275.323 308.7C274.89 309.45 274.24 310.042 273.373 310.475C272.506 310.908 271.465 311.125 270.248 311.125C268.481 311.125 267.031 310.667 265.898 309.75C264.765 308.817 264.131 307.5 263.998 305.8H266.198C266.315 306.8 266.723 307.617 267.423 308.25C268.123 308.883 269.056 309.2 270.223 309.2C271.39 309.2 272.273 308.9 272.873 308.3C273.49 307.683 273.798 306.892 273.798 305.925C273.798 304.675 273.381 303.775 272.548 303.225C271.715 302.675 270.456 302.4 268.773 302.4H268.198V300.5H268.798C270.331 300.483 271.49 300.233 272.273 299.75C273.056 299.25 273.448 298.483 273.448 297.45C273.448 296.567 273.156 295.858 272.573 295.325C272.006 294.792 271.19 294.525 270.123 294.525C269.09 294.525 268.256 294.792 267.623 295.325C266.99 295.858 266.615 296.575 266.498 297.475H264.273Z" fill="white"/>
<path d="M399 335L43 335" stroke="white" stroke-width="0.3"/>
<path d="M399 450L43 450" stroke="white"/>
<path d="M158.822 494.125H151.222L149.822 498H147.422L153.722 480.675H156.347L162.622 498H160.222L158.822 494.125ZM158.172 492.275L155.022 483.475L151.872 492.275H158.172ZM168.143 486.175V494.25C168.143 494.917 168.285 495.392 168.568 495.675C168.851 495.942 169.343 496.075 170.043 496.075H171.718V498H169.668C168.401 498 167.451 497.708 166.818 497.125C166.185 496.542 165.868 495.583 165.868 494.25V486.175H164.093V484.3H165.868V480.85H168.143V484.3H171.718V486.175H168.143ZM177.249 486.175V494.25C177.249 494.917 177.391 495.392 177.674 495.675C177.958 495.942 178.449 496.075 179.149 496.075H180.824V498H178.774C177.508 498 176.558 497.708 175.924 497.125C175.291 496.542 174.974 495.583 174.974 494.25V486.175H173.199V484.3H174.974V480.85H177.249V484.3H180.824V486.175H177.249ZM196.081 490.625C196.081 491.058 196.056 491.517 196.006 492H185.056C185.139 493.35 185.597 494.408 186.431 495.175C187.281 495.925 188.306 496.3 189.506 496.3C190.489 496.3 191.306 496.075 191.956 495.625C192.622 495.158 193.089 494.542 193.356 493.775H195.806C195.439 495.092 194.706 496.167 193.606 497C192.506 497.817 191.139 498.225 189.506 498.225C188.206 498.225 187.039 497.933 186.006 497.35C184.989 496.767 184.189 495.942 183.606 494.875C183.022 493.792 182.731 492.542 182.731 491.125C182.731 489.708 183.014 488.467 183.581 487.4C184.147 486.333 184.939 485.517 185.956 484.95C186.989 484.367 188.172 484.075 189.506 484.075C190.806 484.075 191.956 484.358 192.956 484.925C193.956 485.492 194.722 486.275 195.256 487.275C195.806 488.258 196.081 489.375 196.081 490.625ZM193.731 490.15C193.731 489.283 193.539 488.542 193.156 487.925C192.772 487.292 192.247 486.817 191.581 486.5C190.931 486.167 190.206 486 189.406 486C188.256 486 187.272 486.367 186.456 487.1C185.656 487.833 185.197 488.85 185.081 490.15H193.731ZM215.559 484.05C216.625 484.05 217.575 484.275 218.409 484.725C219.242 485.158 219.9 485.817 220.384 486.7C220.867 487.583 221.109 488.658 221.109 489.925V498H218.859V490.25C218.859 488.883 218.517 487.842 217.834 487.125C217.167 486.392 216.259 486.025 215.109 486.025C213.925 486.025 212.984 486.408 212.284 487.175C211.584 487.925 211.234 489.017 211.234 490.45V498H208.984V490.25C208.984 488.883 208.642 487.842 207.959 487.125C207.292 486.392 206.384 486.025 205.234 486.025C204.05 486.025 203.109 486.408 202.409 487.175C201.709 487.925 201.359 489.017 201.359 490.45V498H199.084V484.3H201.359V486.275C201.809 485.558 202.409 485.008 203.159 484.625C203.925 484.242 204.767 484.05 205.684 484.05C206.834 484.05 207.85 484.308 208.734 484.825C209.617 485.342 210.275 486.1 210.709 487.1C211.092 486.133 211.725 485.383 212.609 484.85C213.492 484.317 214.475 484.05 215.559 484.05ZM227.116 486.825C227.566 486.042 228.232 485.392 229.116 484.875C230.016 484.342 231.057 484.075 232.241 484.075C233.457 484.075 234.557 484.367 235.541 484.95C236.541 485.533 237.324 486.358 237.891 487.425C238.457 488.475 238.741 489.7 238.741 491.1C238.741 492.483 238.457 493.717 237.891 494.8C237.324 495.883 236.541 496.725 235.541 497.325C234.557 497.925 233.457 498.225 232.241 498.225C231.074 498.225 230.041 497.967 229.141 497.45C228.257 496.917 227.582 496.258 227.116 495.475V504.5H224.841V484.3H227.116V486.825ZM236.416 491.1C236.416 490.067 236.207 489.167 235.791 488.4C235.374 487.633 234.807 487.05 234.091 486.65C233.391 486.25 232.616 486.05 231.766 486.05C230.932 486.05 230.157 486.258 229.441 486.675C228.741 487.075 228.174 487.667 227.741 488.45C227.324 489.217 227.116 490.108 227.116 491.125C227.116 492.158 227.324 493.067 227.741 493.85C228.174 494.617 228.741 495.208 229.441 495.625C230.157 496.025 230.932 496.225 231.766 496.225C232.616 496.225 233.391 496.025 234.091 495.625C234.807 495.208 235.374 494.617 235.791 493.85C236.207 493.067 236.416 492.15 236.416 491.1ZM244.51 486.175V494.25C244.51 494.917 244.652 495.392 244.935 495.675C245.218 495.942 245.71 496.075 246.41 496.075H248.085V498H246.035C244.768 498 243.818 497.708 243.185 497.125C242.552 496.542 242.235 495.583 242.235 494.25V486.175H240.46V484.3H242.235V480.85H244.51V484.3H248.085V486.175H244.51ZM263.342 490.625C263.342 491.058 263.317 491.517 263.267 492H252.317C252.4 493.35 252.858 494.408 253.692 495.175C254.542 495.925 255.567 496.3 256.767 496.3C257.75 496.3 258.567 496.075 259.217 495.625C259.883 495.158 260.35 494.542 260.617 493.775H263.067C262.7 495.092 261.967 496.167 260.867 497C259.767 497.817 258.4 498.225 256.767 498.225C255.467 498.225 254.3 497.933 253.267 497.35C252.25 496.767 251.45 495.942 250.867 494.875C250.283 493.792 249.992 492.542 249.992 491.125C249.992 489.708 250.275 488.467 250.842 487.4C251.408 486.333 252.2 485.517 253.217 484.95C254.25 484.367 255.433 484.075 256.767 484.075C258.067 484.075 259.217 484.358 260.217 484.925C261.217 485.492 261.983 486.275 262.517 487.275C263.067 488.258 263.342 489.375 263.342 490.625ZM260.992 490.15C260.992 489.283 260.8 488.542 260.417 487.925C260.033 487.292 259.508 486.817 258.842 486.5C258.192 486.167 257.467 486 256.667 486C255.517 486 254.533 486.367 253.717 487.1C252.917 487.833 252.458 488.85 252.342 490.15H260.992ZM265.494 491.1C265.494 489.7 265.778 488.475 266.344 487.425C266.911 486.358 267.686 485.533 268.669 484.95C269.669 484.367 270.786 484.075 272.019 484.075C273.086 484.075 274.078 484.325 274.994 484.825C275.911 485.308 276.611 485.95 277.094 486.75V479.5H279.394V498H277.094V495.425C276.644 496.242 275.978 496.917 275.094 497.45C274.211 497.967 273.178 498.225 271.994 498.225C270.778 498.225 269.669 497.925 268.669 497.325C267.686 496.725 266.911 495.883 266.344 494.8C265.778 493.717 265.494 492.483 265.494 491.1ZM277.094 491.125C277.094 490.092 276.886 489.192 276.469 488.425C276.053 487.658 275.486 487.075 274.769 486.675C274.069 486.258 273.294 486.05 272.444 486.05C271.594 486.05 270.819 486.25 270.119 486.65C269.419 487.05 268.861 487.633 268.444 488.4C268.028 489.167 267.819 490.067 267.819 491.1C267.819 492.15 268.028 493.067 268.444 493.85C268.861 494.617 269.419 495.208 270.119 495.625C270.819 496.025 271.594 496.225 272.444 496.225C273.294 496.225 274.069 496.025 274.769 495.625C275.486 495.208 276.053 494.617 276.469 493.85C276.886 493.067 277.094 492.158 277.094 491.125ZM283.964 498.15C283.531 498.15 283.164 498 282.864 497.7C282.564 497.4 282.414 497.033 282.414 496.6C282.414 496.167 282.564 495.8 282.864 495.5C283.164 495.2 283.531 495.05 283.964 495.05C284.381 495.05 284.731 495.2 285.014 495.5C285.314 495.8 285.464 496.167 285.464 496.6C285.464 497.033 285.314 497.4 285.014 497.7C284.731 498 284.381 498.15 283.964 498.15ZM283.964 487.45C283.531 487.45 283.164 487.3 282.864 487C282.564 486.7 282.414 486.333 282.414 485.9C282.414 485.467 282.564 485.1 282.864 484.8C283.164 484.5 283.531 484.35 283.964 484.35C284.381 484.35 284.731 484.5 285.014 484.8C285.314 485.1 285.464 485.467 285.464 485.9C285.464 486.333 285.314 486.7 285.014 487C284.731 487.3 284.381 487.45 283.964 487.45ZM294.576 496.175C296.693 494.475 298.351 493.083 299.551 492C300.751 490.9 301.76 489.758 302.576 488.575C303.41 487.375 303.826 486.2 303.826 485.05C303.826 483.967 303.56 483.117 303.026 482.5C302.51 481.867 301.668 481.55 300.501 481.55C299.368 481.55 298.485 481.908 297.851 482.625C297.235 483.325 296.901 484.267 296.851 485.45H294.651C294.718 483.583 295.285 482.142 296.351 481.125C297.418 480.108 298.793 479.6 300.476 479.6C302.193 479.6 303.551 480.075 304.551 481.025C305.568 481.975 306.076 483.283 306.076 484.95C306.076 486.333 305.66 487.683 304.826 489C304.01 490.3 303.076 491.45 302.026 492.45C300.976 493.433 299.635 494.583 298.001 495.9H306.601V497.8H294.576V496.175ZM309.181 484.475C309.298 482.942 309.889 481.742 310.956 480.875C312.023 480.008 313.406 479.575 315.106 479.575C316.239 479.575 317.214 479.783 318.031 480.2C318.864 480.6 319.489 481.15 319.906 481.85C320.339 482.55 320.556 483.342 320.556 484.225C320.556 485.258 320.256 486.15 319.656 486.9C319.073 487.65 318.306 488.133 317.356 488.35V488.475C318.439 488.742 319.298 489.267 319.931 490.05C320.564 490.833 320.881 491.858 320.881 493.125C320.881 494.075 320.664 494.933 320.231 495.7C319.798 496.45 319.148 497.042 318.281 497.475C317.414 497.908 316.373 498.125 315.156 498.125C313.389 498.125 311.939 497.667 310.806 496.75C309.673 495.817 309.039 494.5 308.906 492.8H311.106C311.223 493.8 311.631 494.617 312.331 495.25C313.031 495.883 313.964 496.2 315.131 496.2C316.298 496.2 317.181 495.9 317.781 495.3C318.398 494.683 318.706 493.892 318.706 492.925C318.706 491.675 318.289 490.775 317.456 490.225C316.623 489.675 315.364 489.4 313.681 489.4H313.106V487.5H313.706C315.239 487.483 316.398 487.233 317.181 486.75C317.964 486.25 318.356 485.483 318.356 484.45C318.356 483.567 318.064 482.858 317.481 482.325C316.914 481.792 316.098 481.525 315.031 481.525C313.998 481.525 313.164 481.792 312.531 482.325C311.898 482.858 311.523 483.575 311.406 484.475H309.181Z" fill="white"/>
<path d="M137.552 551H135.277L126.127 537.125V551H123.852V533.55H126.127L135.277 547.4V533.55H137.552V551ZM147.405 551.225C146.122 551.225 144.955 550.933 143.905 550.35C142.872 549.767 142.055 548.942 141.455 547.875C140.872 546.792 140.58 545.542 140.58 544.125C140.58 542.725 140.88 541.492 141.48 540.425C142.097 539.342 142.93 538.517 143.98 537.95C145.03 537.367 146.205 537.075 147.505 537.075C148.805 537.075 149.98 537.367 151.03 537.95C152.08 538.517 152.905 539.333 153.505 540.4C154.122 541.467 154.43 542.708 154.43 544.125C154.43 545.542 154.113 546.792 153.48 547.875C152.863 548.942 152.022 549.767 150.955 550.35C149.888 550.933 148.705 551.225 147.405 551.225ZM147.405 549.225C148.222 549.225 148.988 549.033 149.705 548.65C150.422 548.267 150.997 547.692 151.43 546.925C151.88 546.158 152.105 545.225 152.105 544.125C152.105 543.025 151.888 542.092 151.455 541.325C151.022 540.558 150.455 539.992 149.755 539.625C149.055 539.242 148.297 539.05 147.48 539.05C146.647 539.05 145.88 539.242 145.18 539.625C144.497 539.992 143.947 540.558 143.53 541.325C143.113 542.092 142.905 543.025 142.905 544.125C142.905 545.242 143.105 546.183 143.505 546.95C143.922 547.717 144.472 548.292 145.155 548.675C145.838 549.042 146.588 549.225 147.405 549.225ZM160.196 539.175V547.25C160.196 547.917 160.338 548.392 160.621 548.675C160.904 548.942 161.396 549.075 162.096 549.075H163.771V551H161.721C160.454 551 159.504 550.708 158.871 550.125C158.238 549.542 157.921 548.583 157.921 547.25V539.175H156.146V537.3H157.921V533.85H160.196V537.3H163.771V539.175H160.196ZM183.493 547.125H175.893L174.493 551H172.093L178.393 533.675H181.018L187.293 551H184.893L183.493 547.125ZM182.843 545.275L179.693 536.475L176.543 545.275H182.843ZM192.813 539.175V547.25C192.813 547.917 192.955 548.392 193.238 548.675C193.522 548.942 194.013 549.075 194.713 549.075H196.388V551H194.338C193.072 551 192.122 550.708 191.488 550.125C190.855 549.542 190.538 548.583 190.538 547.25V539.175H188.763V537.3H190.538V533.85H192.813V537.3H196.388V539.175H192.813ZM201.92 539.175V547.25C201.92 547.917 202.061 548.392 202.345 548.675C202.628 548.942 203.12 549.075 203.82 549.075H205.495V551H203.445C202.178 551 201.228 550.708 200.595 550.125C199.961 549.542 199.645 548.583 199.645 547.25V539.175H197.87V537.3H199.645V533.85H201.92V537.3H205.495V539.175H201.92ZM220.751 543.625C220.751 544.058 220.726 544.517 220.676 545H209.726C209.81 546.35 210.268 547.408 211.101 548.175C211.951 548.925 212.976 549.3 214.176 549.3C215.16 549.3 215.976 549.075 216.626 548.625C217.293 548.158 217.76 547.542 218.026 546.775H220.476C220.11 548.092 219.376 549.167 218.276 550C217.176 550.817 215.81 551.225 214.176 551.225C212.876 551.225 211.71 550.933 210.676 550.35C209.66 549.767 208.86 548.942 208.276 547.875C207.693 546.792 207.401 545.542 207.401 544.125C207.401 542.708 207.685 541.467 208.251 540.4C208.818 539.333 209.61 538.517 210.626 537.95C211.66 537.367 212.843 537.075 214.176 537.075C215.476 537.075 216.626 537.358 217.626 537.925C218.626 538.492 219.393 539.275 219.926 540.275C220.476 541.258 220.751 542.375 220.751 543.625ZM218.401 543.15C218.401 542.283 218.21 541.542 217.826 540.925C217.443 540.292 216.918 539.817 216.251 539.5C215.601 539.167 214.876 539 214.076 539C212.926 539 211.943 539.367 211.126 540.1C210.326 540.833 209.868 541.85 209.751 543.15H218.401ZM240.229 537.05C241.296 537.05 242.246 537.275 243.079 537.725C243.912 538.158 244.571 538.817 245.054 539.7C245.537 540.583 245.779 541.658 245.779 542.925V551H243.529V543.25C243.529 541.883 243.187 540.842 242.504 540.125C241.837 539.392 240.929 539.025 239.779 539.025C238.596 539.025 237.654 539.408 236.954 540.175C236.254 540.925 235.904 542.017 235.904 543.45V551H233.654V543.25C233.654 541.883 233.312 540.842 232.629 540.125C231.962 539.392 231.054 539.025 229.904 539.025C228.721 539.025 227.779 539.408 227.079 540.175C226.379 540.925 226.029 542.017 226.029 543.45V551H223.754V537.3H226.029V539.275C226.479 538.558 227.079 538.008 227.829 537.625C228.596 537.242 229.437 537.05 230.354 537.05C231.504 537.05 232.521 537.308 233.404 537.825C234.287 538.342 234.946 539.1 235.379 540.1C235.762 539.133 236.396 538.383 237.279 537.85C238.162 537.317 239.146 537.05 240.229 537.05ZM251.786 539.825C252.236 539.042 252.903 538.392 253.786 537.875C254.686 537.342 255.728 537.075 256.911 537.075C258.128 537.075 259.228 537.367 260.211 537.95C261.211 538.533 261.994 539.358 262.561 540.425C263.128 541.475 263.411 542.7 263.411 544.1C263.411 545.483 263.128 546.717 262.561 547.8C261.994 548.883 261.211 549.725 260.211 550.325C259.228 550.925 258.128 551.225 256.911 551.225C255.744 551.225 254.711 550.967 253.811 550.45C252.928 549.917 252.253 549.258 251.786 548.475V557.5H249.511V537.3H251.786V539.825ZM261.086 544.1C261.086 543.067 260.878 542.167 260.461 541.4C260.044 540.633 259.478 540.05 258.761 539.65C258.061 539.25 257.286 539.05 256.436 539.05C255.603 539.05 254.828 539.258 254.111 539.675C253.411 540.075 252.844 540.667 252.411 541.45C251.994 542.217 251.786 543.108 251.786 544.125C251.786 545.158 251.994 546.067 252.411 546.85C252.844 547.617 253.411 548.208 254.111 548.625C254.828 549.025 255.603 549.225 256.436 549.225C257.286 549.225 258.061 549.025 258.761 548.625C259.478 548.208 260.044 547.617 260.461 546.85C260.878 546.067 261.086 545.15 261.086 544.1ZM269.18 539.175V547.25C269.18 547.917 269.322 548.392 269.605 548.675C269.889 548.942 270.38 549.075 271.08 549.075H272.755V551H270.705C269.439 551 268.489 550.708 267.855 550.125C267.222 549.542 266.905 548.583 266.905 547.25V539.175H265.13V537.3H266.905V533.85H269.18V537.3H272.755V539.175H269.18ZM288.012 543.625C288.012 544.058 287.987 544.517 287.937 545H276.987C277.07 546.35 277.529 547.408 278.362 548.175C279.212 548.925 280.237 549.3 281.437 549.3C282.42 549.3 283.237 549.075 283.887 548.625C284.554 548.158 285.02 547.542 285.287 546.775H287.737C287.37 548.092 286.637 549.167 285.537 550C284.437 550.817 283.07 551.225 281.437 551.225C280.137 551.225 278.97 550.933 277.937 550.35C276.92 549.767 276.12 548.942 275.537 547.875C274.954 546.792 274.662 545.542 274.662 544.125C274.662 542.708 274.945 541.467 275.512 540.4C276.079 539.333 276.87 538.517 277.887 537.95C278.92 537.367 280.104 537.075 281.437 537.075C282.737 537.075 283.887 537.358 284.887 537.925C285.887 538.492 286.654 539.275 287.187 540.275C287.737 541.258 288.012 542.375 288.012 543.625ZM285.662 543.15C285.662 542.283 285.47 541.542 285.087 540.925C284.704 540.292 284.179 539.817 283.512 539.5C282.862 539.167 282.137 539 281.337 539C280.187 539 279.204 539.367 278.387 540.1C277.587 540.833 277.129 541.85 277.012 543.15H285.662ZM290.165 544.1C290.165 542.7 290.448 541.475 291.015 540.425C291.582 539.358 292.357 538.533 293.34 537.95C294.34 537.367 295.457 537.075 296.69 537.075C297.757 537.075 298.748 537.325 299.665 537.825C300.582 538.308 301.282 538.95 301.765 539.75V532.5H304.065V551H301.765V548.425C301.315 549.242 300.648 549.917 299.765 550.45C298.882 550.967 297.848 551.225 296.665 551.225C295.448 551.225 294.34 550.925 293.34 550.325C292.357 549.725 291.582 548.883 291.015 547.8C290.448 546.717 290.165 545.483 290.165 544.1ZM301.765 544.125C301.765 543.092 301.557 542.192 301.14 541.425C300.723 540.658 300.157 540.075 299.44 539.675C298.74 539.258 297.965 539.05 297.115 539.05C296.265 539.05 295.49 539.25 294.79 539.65C294.09 540.05 293.532 540.633 293.115 541.4C292.698 542.167 292.49 543.067 292.49 544.1C292.49 545.15 292.698 546.067 293.115 546.85C293.532 547.617 294.09 548.208 294.79 548.625C295.49 549.025 296.265 549.225 297.115 549.225C297.965 549.225 298.74 549.025 299.44 548.625C300.157 548.208 300.723 547.617 301.14 546.85C301.557 546.067 301.765 545.158 301.765 544.125ZM308.634 551.15C308.201 551.15 307.834 551 307.534 550.7C307.234 550.4 307.084 550.033 307.084 549.6C307.084 549.167 307.234 548.8 307.534 548.5C307.834 548.2 308.201 548.05 308.634 548.05C309.051 548.05 309.401 548.2 309.684 548.5C309.984 548.8 310.134 549.167 310.134 549.6C310.134 550.033 309.984 550.4 309.684 550.7C309.401 551 309.051 551.15 308.634 551.15ZM308.634 540.45C308.201 540.45 307.834 540.3 307.534 540C307.234 539.7 307.084 539.333 307.084 538.9C307.084 538.467 307.234 538.1 307.534 537.8C307.834 537.5 308.201 537.35 308.634 537.35C309.051 537.35 309.401 537.5 309.684 537.8C309.984 538.1 310.134 538.467 310.134 538.9C310.134 539.333 309.984 539.7 309.684 540C309.401 540.3 309.051 540.45 308.634 540.45ZM319.247 549.175C321.363 547.475 323.022 546.083 324.222 545C325.422 543.9 326.43 542.758 327.247 541.575C328.08 540.375 328.497 539.2 328.497 538.05C328.497 536.967 328.23 536.117 327.697 535.5C327.18 534.867 326.338 534.55 325.172 534.55C324.038 534.55 323.155 534.908 322.522 535.625C321.905 536.325 321.572 537.267 321.522 538.45H319.322C319.388 536.583 319.955 535.142 321.022 534.125C322.088 533.108 323.463 532.6 325.147 532.6C326.863 532.6 328.222 533.075 329.222 534.025C330.238 534.975 330.747 536.283 330.747 537.95C330.747 539.333 330.33 540.683 329.497 542C328.68 543.3 327.747 544.45 326.697 545.45C325.647 546.433 324.305 547.583 322.672 548.9H331.272V550.8H319.247V549.175ZM333.852 537.475C333.968 535.942 334.56 534.742 335.627 533.875C336.693 533.008 338.077 532.575 339.777 532.575C340.91 532.575 341.885 532.783 342.702 533.2C343.535 533.6 344.16 534.15 344.577 534.85C345.01 535.55 345.227 536.342 345.227 537.225C345.227 538.258 344.927 539.15 344.327 539.9C343.743 540.65 342.977 541.133 342.027 541.35V541.475C343.11 541.742 343.968 542.267 344.602 543.05C345.235 543.833 345.552 544.858 345.552 546.125C345.552 547.075 345.335 547.933 344.902 548.7C344.468 549.45 343.818 550.042 342.952 550.475C342.085 550.908 341.043 551.125 339.827 551.125C338.06 551.125 336.61 550.667 335.477 549.75C334.343 548.817 333.71 547.5 333.577 545.8H335.777C335.893 546.8 336.302 547.617 337.002 548.25C337.702 548.883 338.635 549.2 339.802 549.2C340.968 549.2 341.852 548.9 342.452 548.3C343.068 547.683 343.377 546.892 343.377 545.925C343.377 544.675 342.96 543.775 342.127 543.225C341.293 542.675 340.035 542.4 338.352 542.4H337.777V540.5H338.377C339.91 540.483 341.068 540.233 341.852 539.75C342.635 539.25 343.027 538.483 343.027 537.45C343.027 536.567 342.735 535.858 342.152 535.325C341.585 534.792 340.768 534.525 339.702 534.525C338.668 534.525 337.835 534.792 337.202 535.325C336.568 535.858 336.193 536.575 336.077 537.475H333.852Z" fill="white"/>
<path d="M120.164 586.7V604H117.889V591.1L112.139 604H110.539L104.764 591.075V604H102.489V586.7H104.939L111.339 601L117.739 586.7H120.164ZM123.173 597.1C123.173 595.7 123.456 594.475 124.023 593.425C124.589 592.358 125.364 591.533 126.348 590.95C127.348 590.367 128.456 590.075 129.673 590.075C130.873 590.075 131.914 590.333 132.798 590.85C133.681 591.367 134.339 592.017 134.773 592.8V590.3H137.073V604H134.773V601.45C134.323 602.25 133.648 602.917 132.748 603.45C131.864 603.967 130.831 604.225 129.648 604.225C128.431 604.225 127.331 603.925 126.348 603.325C125.364 602.725 124.589 601.883 124.023 600.8C123.456 599.717 123.173 598.483 123.173 597.1ZM134.773 597.125C134.773 596.092 134.564 595.192 134.148 594.425C133.731 593.658 133.164 593.075 132.448 592.675C131.748 592.258 130.973 592.05 130.123 592.05C129.273 592.05 128.498 592.25 127.798 592.65C127.098 593.05 126.539 593.633 126.123 594.4C125.706 595.167 125.498 596.067 125.498 597.1C125.498 598.15 125.706 599.067 126.123 599.85C126.539 600.617 127.098 601.208 127.798 601.625C128.498 602.025 129.273 602.225 130.123 602.225C130.973 602.225 131.748 602.025 132.448 601.625C133.164 601.208 133.731 600.617 134.148 599.85C134.564 599.067 134.773 598.158 134.773 597.125ZM143.192 592.525C143.592 591.742 144.159 591.133 144.892 590.7C145.642 590.267 146.551 590.05 147.617 590.05V592.4H147.017C144.467 592.4 143.192 593.783 143.192 596.55V604H140.917V590.3H143.192V592.525ZM157.893 604L152.518 597.95V604H150.243V585.5H152.518V596.375L157.793 590.3H160.968L154.518 597.125L160.993 604H157.893ZM175.61 596.625C175.61 597.058 175.585 597.517 175.535 598H164.585C164.668 599.35 165.126 600.408 165.96 601.175C166.81 601.925 167.835 602.3 169.035 602.3C170.018 602.3 170.835 602.075 171.485 601.625C172.151 601.158 172.618 600.542 172.885 599.775H175.335C174.968 601.092 174.235 602.167 173.135 603C172.035 603.817 170.668 604.225 169.035 604.225C167.735 604.225 166.568 603.933 165.535 603.35C164.518 602.767 163.718 601.942 163.135 600.875C162.551 599.792 162.26 598.542 162.26 597.125C162.26 595.708 162.543 594.467 163.11 593.4C163.676 592.333 164.468 591.517 165.485 590.95C166.518 590.367 167.701 590.075 169.035 590.075C170.335 590.075 171.485 590.358 172.485 590.925C173.485 591.492 174.251 592.275 174.785 593.275C175.335 594.258 175.61 595.375 175.61 596.625ZM173.26 596.15C173.26 595.283 173.068 594.542 172.685 593.925C172.301 593.292 171.776 592.817 171.11 592.5C170.46 592.167 169.735 592 168.935 592C167.785 592 166.801 592.367 165.985 593.1C165.185 593.833 164.726 594.85 164.61 596.15H173.26ZM177.763 597.1C177.763 595.7 178.046 594.475 178.613 593.425C179.179 592.358 179.954 591.533 180.938 590.95C181.938 590.367 183.054 590.075 184.288 590.075C185.354 590.075 186.346 590.325 187.263 590.825C188.179 591.308 188.879 591.95 189.363 592.75V585.5H191.663V604H189.363V601.425C188.913 602.242 188.246 602.917 187.363 603.45C186.479 603.967 185.446 604.225 184.263 604.225C183.046 604.225 181.938 603.925 180.938 603.325C179.954 602.725 179.179 601.883 178.613 600.8C178.046 599.717 177.763 598.483 177.763 597.1ZM189.363 597.125C189.363 596.092 189.154 595.192 188.738 594.425C188.321 593.658 187.754 593.075 187.038 592.675C186.338 592.258 185.563 592.05 184.713 592.05C183.863 592.05 183.088 592.25 182.388 592.65C181.688 593.05 181.129 593.633 180.713 594.4C180.296 595.167 180.088 596.067 180.088 597.1C180.088 598.15 180.296 599.067 180.713 599.85C181.129 600.617 181.688 601.208 182.388 601.625C183.088 602.025 183.863 602.225 184.713 602.225C185.563 602.225 186.338 602.025 187.038 601.625C187.754 601.208 188.321 600.617 188.738 599.85C189.154 599.067 189.363 598.158 189.363 597.125ZM207.747 592.175H204.872V604H202.597V592.175H200.822V590.3H202.597V589.325C202.597 587.792 202.989 586.675 203.772 585.975C204.572 585.258 205.847 584.9 207.597 584.9V586.8C206.597 586.8 205.889 587 205.472 587.4C205.072 587.783 204.872 588.425 204.872 589.325V590.3H207.747V592.175ZM216.375 604.225C215.091 604.225 213.925 603.933 212.875 603.35C211.841 602.767 211.025 601.942 210.425 600.875C209.841 599.792 209.55 598.542 209.55 597.125C209.55 595.725 209.85 594.492 210.45 593.425C211.066 592.342 211.9 591.517 212.95 590.95C214 590.367 215.175 590.075 216.475 590.075C217.775 590.075 218.95 590.367 220 590.95C221.05 591.517 221.875 592.333 222.475 593.4C223.091 594.467 223.4 595.708 223.4 597.125C223.4 598.542 223.083 599.792 222.45 600.875C221.833 601.942 220.991 602.767 219.925 603.35C218.858 603.933 217.675 604.225 216.375 604.225ZM216.375 602.225C217.191 602.225 217.958 602.033 218.675 601.65C219.391 601.267 219.966 600.692 220.4 599.925C220.85 599.158 221.075 598.225 221.075 597.125C221.075 596.025 220.858 595.092 220.425 594.325C219.991 593.558 219.425 592.992 218.725 592.625C218.025 592.242 217.266 592.05 216.45 592.05C215.616 592.05 214.85 592.242 214.15 592.625C213.466 592.992 212.916 593.558 212.5 594.325C212.083 595.092 211.875 596.025 211.875 597.125C211.875 598.242 212.075 599.183 212.475 599.95C212.891 600.717 213.441 601.292 214.125 601.675C214.808 602.042 215.558 602.225 216.375 602.225ZM228.666 592.525C229.066 591.742 229.632 591.133 230.366 590.7C231.116 590.267 232.024 590.05 233.091 590.05V592.4H232.491C229.941 592.4 228.666 593.783 228.666 596.55V604H226.391V590.3H228.666V592.525ZM251.557 604L247.407 596.875H244.657V604H242.382V586.575H248.007C249.324 586.575 250.432 586.8 251.332 587.25C252.249 587.7 252.932 588.308 253.382 589.075C253.832 589.842 254.057 590.717 254.057 591.7C254.057 592.9 253.707 593.958 253.007 594.875C252.324 595.792 251.29 596.4 249.907 596.7L254.282 604H251.557ZM244.657 595.05H248.007C249.24 595.05 250.165 594.75 250.782 594.15C251.399 593.533 251.707 592.717 251.707 591.7C251.707 590.667 251.399 589.867 250.782 589.3C250.182 588.733 249.257 588.45 248.007 588.45H244.657V595.05ZM270.092 596.625C270.092 597.058 270.067 597.517 270.017 598H259.067C259.15 599.35 259.609 600.408 260.442 601.175C261.292 601.925 262.317 602.3 263.517 602.3C264.5 602.3 265.317 602.075 265.967 601.625C266.634 601.158 267.1 600.542 267.367 599.775H269.817C269.45 601.092 268.717 602.167 267.617 603C266.517 603.817 265.15 604.225 263.517 604.225C262.217 604.225 261.05 603.933 260.017 603.35C259 602.767 258.2 601.942 257.617 600.875C257.034 599.792 256.742 598.542 256.742 597.125C256.742 595.708 257.025 594.467 257.592 593.4C258.159 592.333 258.95 591.517 259.967 590.95C261 590.367 262.184 590.075 263.517 590.075C264.817 590.075 265.967 590.358 266.967 590.925C267.967 591.492 268.734 592.275 269.267 593.275C269.817 594.258 270.092 595.375 270.092 596.625ZM267.742 596.15C267.742 595.283 267.55 594.542 267.167 593.925C266.784 593.292 266.259 592.817 265.592 592.5C264.942 592.167 264.217 592 263.417 592C262.267 592 261.284 592.367 260.467 593.1C259.667 593.833 259.209 594.85 259.092 596.15H267.742ZM278.195 601.9L282.445 590.3H284.87L279.495 604H276.845L271.47 590.3H273.92L278.195 601.9ZM288.284 588.075C287.85 588.075 287.484 587.925 287.184 587.625C286.884 587.325 286.734 586.958 286.734 586.525C286.734 586.092 286.884 585.725 287.184 585.425C287.484 585.125 287.85 584.975 288.284 584.975C288.7 584.975 289.05 585.125 289.334 585.425C289.634 585.725 289.784 586.092 289.784 586.525C289.784 586.958 289.634 587.325 289.334 587.625C289.05 587.925 288.7 588.075 288.284 588.075ZM289.384 590.3V604H287.109V590.3H289.384ZM305.761 596.625C305.761 597.058 305.736 597.517 305.686 598H294.736C294.819 599.35 295.278 600.408 296.111 601.175C296.961 601.925 297.986 602.3 299.186 602.3C300.169 602.3 300.986 602.075 301.636 601.625C302.303 601.158 302.769 600.542 303.036 599.775H305.486C305.119 601.092 304.386 602.167 303.286 603C302.186 603.817 300.819 604.225 299.186 604.225C297.886 604.225 296.719 603.933 295.686 603.35C294.669 602.767 293.869 601.942 293.286 600.875C292.703 599.792 292.411 598.542 292.411 597.125C292.411 595.708 292.694 594.467 293.261 593.4C293.828 592.333 294.619 591.517 295.636 590.95C296.669 590.367 297.853 590.075 299.186 590.075C300.486 590.075 301.636 590.358 302.636 590.925C303.636 591.492 304.403 592.275 304.936 593.275C305.486 594.258 305.761 595.375 305.761 596.625ZM303.411 596.15C303.411 595.283 303.219 594.542 302.836 593.925C302.453 593.292 301.928 592.817 301.261 592.5C300.611 592.167 299.886 592 299.086 592C297.936 592 296.953 592.367 296.136 593.1C295.336 593.833 294.878 594.85 294.761 596.15H303.411ZM327.014 590.3L322.739 604H320.389L317.089 593.125L313.789 604H311.439L307.139 590.3H309.464L312.614 601.8L316.014 590.3H318.339L321.664 601.825L324.764 590.3H327.014ZM329.997 604.15C329.563 604.15 329.197 604 328.897 603.7C328.597 603.4 328.447 603.033 328.447 602.6C328.447 602.167 328.597 601.8 328.897 601.5C329.197 601.2 329.563 601.05 329.997 601.05C330.413 601.05 330.763 601.2 331.047 601.5C331.347 601.8 331.497 602.167 331.497 602.6C331.497 603.033 331.347 603.4 331.047 603.7C330.763 604 330.413 604.15 329.997 604.15ZM329.997 593.45C329.563 593.45 329.197 593.3 328.897 593C328.597 592.7 328.447 592.333 328.447 591.9C328.447 591.467 328.597 591.1 328.897 590.8C329.197 590.5 329.563 590.35 329.997 590.35C330.413 590.35 330.763 590.5 331.047 590.8C331.347 591.1 331.497 591.467 331.497 591.9C331.497 592.333 331.347 592.7 331.047 593C330.763 593.3 330.413 593.45 329.997 593.45ZM340.609 602.175C342.726 600.475 344.384 599.083 345.584 598C346.784 596.9 347.792 595.758 348.609 594.575C349.442 593.375 349.859 592.2 349.859 591.05C349.859 589.967 349.592 589.117 349.059 588.5C348.542 587.867 347.701 587.55 346.534 587.55C345.401 587.55 344.517 587.908 343.884 588.625C343.267 589.325 342.934 590.267 342.884 591.45H340.684C340.751 589.583 341.317 588.142 342.384 587.125C343.451 586.108 344.826 585.6 346.509 585.6C348.226 585.6 349.584 586.075 350.584 587.025C351.601 587.975 352.109 589.283 352.109 590.95C352.109 592.333 351.692 593.683 350.859 595C350.042 596.3 349.109 597.45 348.059 598.45C347.009 599.433 345.667 600.583 344.034 601.9H352.634V603.8H340.609V602.175ZM355.214 590.475C355.331 588.942 355.922 587.742 356.989 586.875C358.056 586.008 359.439 585.575 361.139 585.575C362.272 585.575 363.247 585.783 364.064 586.2C364.897 586.6 365.522 587.15 365.939 587.85C366.372 588.55 366.589 589.342 366.589 590.225C366.589 591.258 366.289 592.15 365.689 592.9C365.106 593.65 364.339 594.133 363.389 594.35V594.475C364.472 594.742 365.331 595.267 365.964 596.05C366.597 596.833 366.914 597.858 366.914 599.125C366.914 600.075 366.697 600.933 366.264 601.7C365.831 602.45 365.181 603.042 364.314 603.475C363.447 603.908 362.406 604.125 361.189 604.125C359.422 604.125 357.972 603.667 356.839 602.75C355.706 601.817 355.072 600.5 354.939 598.8H357.139C357.256 599.8 357.664 600.617 358.364 601.25C359.064 601.883 359.997 602.2 361.164 602.2C362.331 602.2 363.214 601.9 363.814 601.3C364.431 600.683 364.739 599.892 364.739 598.925C364.739 597.675 364.322 596.775 363.489 596.225C362.656 595.675 361.397 595.4 359.714 595.4H359.139V593.5H359.739C361.272 593.483 362.431 593.233 363.214 592.75C363.997 592.25 364.389 591.483 364.389 590.45C364.389 589.567 364.097 588.858 363.514 588.325C362.947 587.792 362.131 587.525 361.064 587.525C360.031 587.525 359.197 587.792 358.564 588.325C357.931 588.858 357.556 589.575 357.439 590.475H355.214Z" fill="white"/>
<path d="M391.952 24L388 27.9516L390.018 29.9694L395.006 35.042L390.018 40.0306L388 41.9643L391.952 46L393.969 43.9822L399.042 38.9096L404.031 43.9822L405.964 46L410 41.9643L407.982 40.0306L402.91 35.042L407.982 29.9694L410 27.9516L405.964 24L404.031 26.0178L399.042 31.0064L393.969 26.0178L391.952 24Z" fill="white"/>
<rect x="62" y="665" width="326" height="88" rx="17" fill="#F8FF49"/>
<path d="M153.75 718.175C152.533 718.175 151.433 717.967 150.45 717.55C149.483 717.133 148.717 716.533 148.15 715.75C147.583 714.967 147.292 714.042 147.275 712.975H151.025C151.075 713.692 151.325 714.258 151.775 714.675C152.242 715.092 152.875 715.3 153.675 715.3C154.492 715.3 155.133 715.108 155.6 714.725C156.067 714.325 156.3 713.808 156.3 713.175C156.3 712.658 156.142 712.233 155.825 711.9C155.508 711.567 155.108 711.308 154.625 711.125C154.158 710.925 153.508 710.708 152.675 710.475C151.542 710.142 150.617 709.817 149.9 709.5C149.2 709.167 148.592 708.675 148.075 708.025C147.575 707.358 147.325 706.475 147.325 705.375C147.325 704.342 147.583 703.442 148.1 702.675C148.617 701.908 149.342 701.325 150.275 700.925C151.208 700.508 152.275 700.3 153.475 700.3C155.275 700.3 156.733 700.742 157.85 701.625C158.983 702.492 159.608 703.708 159.725 705.275H155.875C155.842 704.675 155.583 704.183 155.1 703.8C154.633 703.4 154.008 703.2 153.225 703.2C152.542 703.2 151.992 703.375 151.575 703.725C151.175 704.075 150.975 704.583 150.975 705.25C150.975 705.717 151.125 706.108 151.425 706.425C151.742 706.725 152.125 706.975 152.575 707.175C153.042 707.358 153.692 707.575 154.525 707.825C155.658 708.158 156.583 708.492 157.3 708.825C158.017 709.158 158.633 709.658 159.15 710.325C159.667 710.992 159.925 711.867 159.925 712.95C159.925 713.883 159.683 714.75 159.2 715.55C158.717 716.35 158.008 716.992 157.075 717.475C156.142 717.942 155.033 718.175 153.75 718.175ZM176.034 704.15V718H172.509V716.25C172.059 716.85 171.468 717.325 170.734 717.675C170.018 718.008 169.234 718.175 168.384 718.175C167.301 718.175 166.343 717.95 165.509 717.5C164.676 717.033 164.018 716.358 163.534 715.475C163.068 714.575 162.834 713.508 162.834 712.275V704.15H166.334V711.775C166.334 712.875 166.609 713.725 167.159 714.325C167.709 714.908 168.459 715.2 169.409 715.2C170.376 715.2 171.134 714.908 171.684 714.325C172.234 713.725 172.509 712.875 172.509 711.775V704.15H176.034ZM182.988 706.175C183.438 705.508 184.054 704.967 184.838 704.55C185.638 704.133 186.546 703.925 187.563 703.925C188.746 703.925 189.813 704.217 190.763 704.8C191.729 705.383 192.488 706.217 193.038 707.3C193.604 708.367 193.888 709.608 193.888 711.025C193.888 712.442 193.604 713.7 193.038 714.8C192.488 715.883 191.729 716.725 190.763 717.325C189.813 717.925 188.746 718.225 187.563 718.225C186.529 718.225 185.621 718.025 184.838 717.625C184.071 717.208 183.454 716.675 182.988 716.025V718H179.488V699.5H182.988V706.175ZM190.313 711.025C190.313 710.192 190.138 709.475 189.788 708.875C189.454 708.258 189.004 707.792 188.438 707.475C187.888 707.158 187.288 707 186.638 707C186.004 707 185.404 707.167 184.838 707.5C184.288 707.817 183.838 708.283 183.488 708.9C183.154 709.517 182.988 710.242 182.988 711.075C182.988 711.908 183.154 712.633 183.488 713.25C183.838 713.867 184.288 714.342 184.838 714.675C185.404 714.992 186.004 715.15 186.638 715.15C187.288 715.15 187.888 714.983 188.438 714.65C189.004 714.317 189.454 713.842 189.788 713.225C190.138 712.608 190.313 711.875 190.313 711.025ZM213.631 703.95C215.331 703.95 216.698 704.475 217.731 705.525C218.781 706.558 219.306 708.008 219.306 709.875V718H215.806V710.35C215.806 709.267 215.531 708.442 214.981 707.875C214.431 707.292 213.681 707 212.731 707C211.781 707 211.023 707.292 210.456 707.875C209.906 708.442 209.631 709.267 209.631 710.35V718H206.131V710.35C206.131 709.267 205.856 708.442 205.306 707.875C204.756 707.292 204.006 707 203.056 707C202.089 707 201.323 707.292 200.756 707.875C200.206 708.442 199.931 709.267 199.931 710.35V718H196.431V704.15H199.931V705.825C200.381 705.242 200.956 704.783 201.656 704.45C202.373 704.117 203.156 703.95 204.006 703.95C205.089 703.95 206.056 704.183 206.906 704.65C207.756 705.1 208.414 705.75 208.881 706.6C209.331 705.8 209.981 705.158 210.831 704.675C211.698 704.192 212.631 703.95 213.631 703.95ZM224.402 702.5C223.786 702.5 223.269 702.308 222.852 701.925C222.452 701.525 222.252 701.033 222.252 700.45C222.252 699.867 222.452 699.383 222.852 699C223.269 698.6 223.786 698.4 224.402 698.4C225.019 698.4 225.527 698.6 225.927 699C226.344 699.383 226.552 699.867 226.552 700.45C226.552 701.033 226.344 701.525 225.927 701.925C225.527 702.308 225.019 702.5 224.402 702.5ZM226.127 704.15V718H222.627V704.15H226.127ZM233.66 707.025V713.725C233.66 714.192 233.769 714.533 233.985 714.75C234.219 714.95 234.602 715.05 235.135 715.05H236.76V718H234.56C231.61 718 230.135 716.567 230.135 713.7V707.025H228.485V704.15H230.135V700.725H233.66V704.15H236.76V707.025H233.66ZM257.11 700.55V703.375H252.46V718H248.96V703.375H244.31V700.55H257.11ZM272.538 710.775C272.538 711.275 272.505 711.725 272.438 712.125H262.313C262.397 713.125 262.747 713.908 263.363 714.475C263.98 715.042 264.738 715.325 265.638 715.325C266.938 715.325 267.863 714.767 268.413 713.65H272.188C271.788 714.983 271.022 716.083 269.888 716.95C268.755 717.8 267.363 718.225 265.713 718.225C264.38 718.225 263.18 717.933 262.113 717.35C261.063 716.75 260.238 715.908 259.638 714.825C259.055 713.742 258.763 712.492 258.763 711.075C258.763 709.642 259.055 708.383 259.638 707.3C260.222 706.217 261.038 705.383 262.088 704.8C263.138 704.217 264.347 703.925 265.713 703.925C267.03 703.925 268.205 704.208 269.238 704.775C270.288 705.342 271.097 706.15 271.663 707.2C272.247 708.233 272.538 709.425 272.538 710.775ZM268.913 709.775C268.897 708.875 268.572 708.158 267.938 707.625C267.305 707.075 266.53 706.8 265.613 706.8C264.747 706.8 264.013 707.067 263.413 707.6C262.83 708.117 262.472 708.842 262.338 709.775H268.913ZM280.393 718.225C279.26 718.225 278.243 718.025 277.343 717.625C276.443 717.208 275.726 716.65 275.193 715.95C274.676 715.25 274.393 714.475 274.343 713.625H277.868C277.935 714.158 278.193 714.6 278.643 714.95C279.11 715.3 279.685 715.475 280.368 715.475C281.035 715.475 281.551 715.342 281.918 715.075C282.301 714.808 282.493 714.467 282.493 714.05C282.493 713.6 282.26 713.267 281.793 713.05C281.343 712.817 280.618 712.567 279.618 712.3C278.585 712.05 277.735 711.792 277.068 711.525C276.418 711.258 275.851 710.85 275.368 710.3C274.901 709.75 274.668 709.008 274.668 708.075C274.668 707.308 274.885 706.608 275.318 705.975C275.768 705.342 276.401 704.842 277.218 704.475C278.051 704.108 279.026 703.925 280.143 703.925C281.793 703.925 283.11 704.342 284.093 705.175C285.076 705.992 285.618 707.1 285.718 708.5H282.368C282.318 707.95 282.085 707.517 281.668 707.2C281.268 706.867 280.726 706.7 280.043 706.7C279.41 706.7 278.918 706.817 278.568 707.05C278.235 707.283 278.068 707.608 278.068 708.025C278.068 708.492 278.301 708.85 278.768 709.1C279.235 709.333 279.96 709.575 280.943 709.825C281.943 710.075 282.768 710.333 283.418 710.6C284.068 710.867 284.626 711.283 285.093 711.85C285.576 712.4 285.826 713.133 285.843 714.05C285.843 714.85 285.618 715.567 285.168 716.2C284.735 716.833 284.101 717.333 283.268 717.7C282.451 718.05 281.493 718.225 280.393 718.225ZM292.791 707.025V713.725C292.791 714.192 292.9 714.533 293.116 714.75C293.35 714.95 293.733 715.05 294.266 715.05H295.891V718H293.691C290.741 718 289.266 716.567 289.266 713.7V707.025H287.616V704.15H289.266V700.725H292.791V704.15H295.891V707.025H292.791Z" fill="#514BF2"/>
</g>
<defs>
<clipPath id="clip0_66_1734">
<rect width="441" height="783" fill="white"/>
</clipPath>
</defs>
</svg>
